<?xml version="1.0" encoding="UTF-8"?><svg id="Layer_2" xmlns="http://www.w3.org/2000/svg" viewBox="0 0 192.86 78.58"><defs><style>.cls-1{fill:#e64259;}</style></defs><g id="Layer_1-2"><path class="cls-1" d="M192.47,18.16c-1.17-2.33-4.8-2.08-6.5-4.05-.87-1.01-1.08-2.41-1.57-3.66-1.26-3.19-4.41-5.25-7.62-6.46-9.72-3.69-20.53-1.48-30.93-1.37-1.4.02-2.8-.02-4.2-.07-1.17.55-2.34,1.09-3.51,1.64-1.36.64-2.73,1.28-4.02,2.04-2.91,1.71-5.44,4.04-8.49,5.5,3.38-1.61,5.35-5.67,7.09-8.71.27-.48.51-.81.73-1.05-3.55-.34-7.1-.74-10.65-1.07-28.18-2.57-56.84.31-83.95,8.42-7.47,2.23-14.85,4.87-21.73,8.54-4.47,2.38-8.95,5.45-10.93,10.11-1.29,3.03-1.38,6.42-1.86,9.68-.9,6.02-3.19,11.77-4,17.79-.99,7.4.28,12.4,3.87,15.57,9.77-4.09,20.14-6.58,30.64-7.33,4.2-.3,8.49-.34,12.47-1.79,3.39-1.24,6.41-3.46,9.83-4.57,3.34-1.08,6.9-1.06,10.39-1.21,8.23-.36,16.41-1.71,24.34-4.02,4.26-1.24,8.82-3.08,10.94-7.14,2.07-3.95,1.22-8.86,2.38-13.2,1.95-7.3,8.98-11.56,15.41-15.06-2.39,3.1-4.77,6.2-7.16,9.3-.79,1.03-1.6,2.09-1.99,3.34-.49,1.59-.26,3.32-.02,4.98.74,5.14,1.66,10.67,5.22,14.3,3.33,3.4,8.23,4.36,12.82,5.16,1.34.23,2.68.47,4.04.45,1.49-.02,2.96-.34,4.42-.65,5.84-1.27,11.69-2.54,17.53-3.8-9.15,8.45-22.15,10.12-34.29,11.42-16.17,1.73-32.36,3.46-48.61,3.93-16.21.48-33.09-.15-47.81,6.98-2.59,1.25-5.23,2.51-7.84,3.26,13.85,1.6,27.82,1.91,41.75,2.23,9.96.23,19.93.46,29.89.69,20.85.48,41.89.95,62.38-2.96,7.05-1.34,14.12-3.25,20.23-7.03,15.51-9.6,21.72-29.41,21.72-47.65,0-.84-.02-1.72-.4-2.47ZM7.43,43.28c-3.57-1.15,1.12-13.84,2.69-15.99,2.64-3.6,6.54-5.46,10.31-7.11,12.54-5.47,25.93-9.97,39.14-7.58-3.87.17-7.76.35-11.54,1.29-6.72,1.68-12.83,5.69-19.19,8.77-4.81,2.33-9.86,4.19-14.1,7.73-3.88,3.24-6.13,7.54-7.31,12.88ZM65.74,47.05c-.53-.1-1.13-.19-1.56.13-.34.25-.48.68-.74,1.01-.59.75-1.67.87-2.62.92-6.86.35-13.74.23-20.62.12-5.67-.1-11.56-.25-16.6-2.84,9.44,3.48,19.94.69,29.97,1.44,1.72.13,3.48.36,5.16-.05,1.31-.32,2.5-1.02,3.77-1.46,2.61-.98,11.2-1.08,12.21,2.37-2.88,0-6.11-1.09-8.97-1.64ZM102.39,28.37c-2.28-1.18-2.24.65-4.28.18-2.33-.53-4.64-1.17-6.92-1.9-2.33-.75-4.65-1.6-7.07-1.98-1.95-.31-3.94-.3-5.92-.32-3.82-.03-7.64-.12-11.45-.29-2.23-.1-4.53-.24-6.51-1.25,5.15.1,10.31.19,15.46.29,5.07.09,10.27.21,14.97,2.1,1.98.8,3.74,1.66,5.91,1.33,1.79-.28,3.04-.91,4.8-.13,1.58.7,3.53,2.45,4.11,4.08-1.09-.48-2-1.54-3.1-2.11ZM150.51,37.62c-3.69,5.97-11.62,9.4-18.61,8.03-4.29-.84-8.49-4.09-8.06-8.26.22-2.11,1.58-4,3.08-5.62,4.58-4.96,9.57-8.45,16.13-6.69,6.33,1.7,11.43,6.09,7.45,12.54ZM183.36,41.83c-2.99,3.78-8.62,5.19-13.03,3.27,6.17-2.25,11.36-7.06,14.06-13.05l.46.28c2.77,1.95.62,6.84-1.48,9.5Z"/></g></svg>