<?xml version="1.0" encoding="UTF-8"?><svg id="Layer_2" xmlns="http://www.w3.org/2000/svg" viewBox="0 0 201.19 81.33"><defs><style>.cls-1{fill:#e64259;}</style></defs><g id="Layer_1-2"><path class="cls-1" d="M198.45,65.15c-7.32-15.23-.16-32.91.22-49.69.09-3.88-.37-8.15-3.27-10.84-2.5-2.32-6.19-2.9-9.64-3.27C172.01-.12,158.14-.04,144.31.03c-27.83.15-55.65.31-83.48.46-13.91.08-27.83.08-41.74.23C8.17.85,1.46,6.96.85,17.9c-.39,7.14,1.96,14.12,3.72,21.07,1.76,6.95,2.91,14.45.21,21.12-2.08,5.14-6.4,10.44-4.16,15.51,2.24,5.05,9.24,5.77,14.95,5.73,53.72-.39,107.44-.78,161.17-1.17,6.37-.05,12.8-.1,19.01-1.46,1.37-.3,2.78-.69,3.83-1.6,3.33-2.9.74-8.04-1.14-11.96ZM9.26,77.37c-.04.38-.17.8-.44.93-.17.08-.36.03-.53-.02-.86-.25-1.71-.49-2.57-.74-.32-.09-.65-.19-.88-.49-.18-.23-.27-.55-.36-.86-.47-1.63-.95-3.29-1.02-5.03-.1-2.39.53-6.59,1.63-8.56.89-1.61.92-1.26,1.63.64.69,1.85,1.35,4.15,1.54,6.18.22,2.3,1.26,5.72,1.01,7.95ZM16.38,23.78c-1.32.07-2.94.15-3.62-.99-.86-1.43.63-3.63-.55-4.81-.63-.63-1.8-.64-2.2-1.44-.28-.57-.01-1.27.41-1.74.42-.47.98-.81,1.4-1.28.86-.94,1.1-2.36.74-3.58l1.85-.8c.75-.39,1.53-.78,2.37-.9.84-.12,1.77.07,2.34.7.68.76.68,1.94,1.3,2.74.56.73,1.53,1.03,2.19,1.68.92.92,1.05,2.35,1.13,3.65.12,2.15.23,4.4-.67,6.35-.16-.24-.31-.47-.47-.71-.79.13-1.47.74-1.69,1.5-1.48-.34-3-.47-4.52-.4ZM32.5,74.16c-.22.43-.72.65-1.2.81-3.39,1.2-9.58,2.67-11.73-1.09-.95-1.66-.76-3.78.29-5.39.62-.95,1.53-1.78,1.75-2.87.17-.89-.14-1.78-.24-2.68-.24-2.31,1.03-4.58.88-6.9-.12-1.73-1.02-3.37-1-5.11.02-1.1.41-2.16.64-3.25,1-4.74-1.2-9.6-.75-14.41.17-1.78.69-3.51,1.22-5.23-.07,4.75,2.95,9.12,3.31,13.85.13,1.69-.09,3.41.25,5.08.25,1.25.81,2.45.88,3.73.03.57-.04,1.16.15,1.7.33.94,1.33,1.54,1.84,2.41.58,1,.44,2.25.9,3.3.47,1.07,1.58,1.99,1.44,3.14-.09.77-.75,1.4-.85,2.17-.18,1.39,1.46,2.47,1.56,3.86.09,1.28-1.16,2.49-.78,3.72.17.57.66,1,1.04,1.48s.68,1.11.4,1.65ZM41.93,15.75c-.42-1.12-.59-2.49.17-3.41.5-.61,1.3-.87,1.97-1.3.67-.43,1.15-1.12,1.02-1.93,1.37-.12,2.42-.44,3.73-.8,1.31-.36,1.46.09,2.42.89,1.03.86,2.16,1.13,2.88,2.37.61,1.06.83,2.32,1.02,3.51.09.56.18,1.13.03,1.67-.14.52-.48.97-.82,1.39-.65.83-1.31,1.67-1.96,2.5-.5.64-1.02,1.3-1.23,2.09-.46,1.68.54,3.54-.06,5.18-1.82-2.18-3.64-4.37-5.45-6.55-1.44-1.73-2.9-3.5-3.69-5.61ZM57.25,75.4c-1.7,1.54-5.39.74-7.32.17-.56-.17-1.16-.4-1.45-.9-.23-.38-.23-.84-.22-1.28.02-2.13.04-4.26.07-6.39.01-1.16.03-2.34.33-3.46.25-.92.68-1.79.81-2.73.13-.96-.06-1.93.04-2.89.17-1.71,1.22-3.28,1.24-5,.02-1.43-.68-2.8-.76-4.23-.14-2.52,1.64-4.75,2.16-7.22.54-2.53-.24-5.29.79-7.67.04,1.42.09,2.84.14,4.26.05,1.27.11,2.58.61,3.76.42,1.01,1.15,1.88,1.56,2.89.92,2.3.08,4.98.95,7.29.35.93.97,1.75,1.3,2.68.37,1.04.38,2.16.38,3.26,0,2.54-.01,5.16-1.02,7.5-.28.66-.65,1.36-.49,2.06.13.54.56.97.8,1.47.51,1.1.43,2.76.65,3.96.16.92.2,1.76-.56,2.45ZM69.81,13.45c-.13-.23-.25-.47-.27-.73-.05-.68.56-1.21,1.15-1.54,1.2-.68,2.58-1.06,3.97-1.07,1.25-.01,2.48.26,3.7.54.75,0,1.46.01,1.86-.02.16-.01.35-.02.47.09.11.1.13.27.14.42.02,1.14-.59,2.28-.26,3.37.12.41.37.76.51,1.17.5,1.49-.64,2.99-.95,4.52-.24,1.16,0,2.36,0,3.54.01,1.18-.29,2.5-1.27,3.17-2.22-2.2-2.23-5.86-4.08-8.38-1.41-1.91-3.78-3.01-4.97-5.07ZM89.84,72.49c-.31.71-.07,1.64-.57,2.24-.32.39-.86.52-1.35.61-2.38.46-4.84.74-7.25.95-2.23.19-2.97-1.87-2.68-3.91.24-1.64,1.03-3.16,1.29-4.8.24-1.56-.02-3.16.09-4.73.16-2.26,1.08-4.46.89-6.71-.17-2.03-1.21-4.15-.34-5.99.31-.65.82-1.17,1.22-1.77.76-1.14,1.05-2.52,1.23-3.88.41-3.04.32-6.15-.25-9.17-.27-1.42-.62-3.02.2-4.22.95,5.68,1.89,11.37,2.84,17.05.2,1.17.39,2.35.71,3.5.27.95.62,1.87.79,2.84.31,1.76.03,3.59.44,5.32.41,1.73,1.48,3.25,1.82,5,.29,1.48.05,3.14.89,4.4.36.54.93,1.04.88,1.69-.04.6-.61,1.02-.85,1.58ZM104.49,18.37c-.79-.62-1.74-.99-2.64-1.45-1.01-.51-1.95-1.13-2.82-1.85-.6-.5-1.21-1.13-1.25-1.92-.04-.86.61-1.59,1.28-2.12,3.37-2.68,8.46-2.96,12.1-.65.29.19.59.4.77.7.21.34.24.76.21,1.16-.1,1.28-.8,2.51-.63,3.79.08.61.36,1.19.38,1.8.03,1.41-1.32,2.63-1.09,4.02.13.77,1.23,1.85.3,2.47-.62-.92-1.6-1.14-2.53-1.64-1.75-.94-2.53-3.07-4.09-4.31ZM119.63,73.06c-.3.64-1.02.94-1.7,1.16-1.78.58-3.67.73-5.44,1.3-1.55.5-2.61.35-3.66-1.17-.72-1.05-1.08-2.3-1.69-3.41-.26-.47-.57-.92-.72-1.44-.18-.62-.11-1.28-.05-1.92.11-1.06.22-2.12.33-3.17.07-.64.14-1.3.42-1.88.43-.87,1.28-1.46,1.77-2.29.47-.8.57-1.76.67-2.68.33-3.32.66-6.68.07-9.96-.11-.6-.25-1.22-.11-1.81.15-.64.61-1.16.98-1.71,1.57-2.31,1.67-5.28,1.62-8.07-.05-2.79-.18-5.71,1.04-8.22-.73,3.73,1.82,7.36,1.84,11.17,0,1.5-.38,3.01-.14,4.49.18,1.1.7,2.14.76,3.25.06,1.17-.4,2.33-.25,3.49.3,2.34,2.95,3.99,2.86,6.35-.06,1.58-1.38,3.1-.85,4.58.31.88,1.25,1.56,1.19,2.5-.03.46-.3.88-.29,1.34.03.89,1.07,1.4,1.41,2.23.41.98-.27,2.08-.25,3.14.02.93.56,1.89.17,2.73ZM134.99,21.93c-.67-.61-1.46-1.06-2.1-1.7-.86-.85-1.35-2-1.81-3.12-.78-1.86-1.56-3.72-2.33-5.59-.12-.29-.24-.59-.23-.9.03-.7.72-1.19,1.38-1.42s1.39-.34,1.94-.78c.71-.58.98-1.66,1.83-1.99.55-.22,1.18-.05,1.74.13,2.05.63,4.1,1.26,6.15,1.89,1.08.33,2.38.94,2.39,2.07.01,1.13-1.26,1.76-1.96,2.64-.93,1.16-.82,2.72-1,4.11-.24,1.81-1.09,2.47-2.03,3.9-.52.79-.82,2.82-2.06,2.6-.63-.11-1.44-1.42-1.9-1.84ZM150.11,73.13c-1.02.22-2.07.21-3.1.2-2.07-.02-3.78.19-5.78.65-1.42.33-2.31.39-2.91-1.07-.9-2.19.71-3.62.34-5.66-.2-1.1-1.31-2.07-.96-3.14.1-.31.32-.57.54-.82.67-.78,1.35-1.56,2.02-2.34.18-.21.37-.44.39-.72.04-.52-.51-.86-.8-1.29-.59-.89-.06-2.11-.36-3.14-.2-.7-.79-1.26-.94-1.98-.09-.42-.01-.86.07-1.28.95-5,2.89-9.94,2.36-15-.15-1.48-.52-2.93-.55-4.42-.03-1.48.32-3.06,1.39-4.1.21,2.64,1.44,5.07,2.31,7.56,1.66,4.72,2.07,9.78,2.17,14.79.01.53.02,1.06.19,1.56.31.87,1.09,1.5,1.5,2.33.57,1.15.36,2.53.71,3.76.31,1.06,1.03,1.98,1.25,3.06.29,1.45-.35,3.04.26,4.39.32.71.96,1.24,1.23,1.97.23.61.17,1.29.27,1.93.1.64.43,1.34,1.06,1.51-.14-.04-2.26,1.17-2.67,1.26ZM171.56,20.13c-.46-1.18-1.93-1.87-2.05-3.13-.04-.42.08-.83.06-1.25-.04-.82-.62-1.53-1.28-2.01s-1.43-.81-2.1-1.28c-.15-.1-.31-.24-.32-.42,0-.12.06-.24.13-.34,1.15-1.65,3.65-1.61,5.21-2.88.42-.34.76-.77,1.2-1.08,1.15-.78,2.68-.53,4.04-.25.4.08.83.18,1.08.5.18.23.23.54.27.83.17,1.33.19,2.68.06,4.02-.06.66-.16,1.35.07,1.97.15.41.42.76.58,1.16.44,1.16-.2,2.42-.78,3.51-.56,1.06-1.07,2.17-1.38,3.33-.2.78-.14,1.7-1.03,2-1.6.54-3.18-1.88-3.45-3.13-.11-.52-.11-1.06-.3-1.56ZM186.08,72.64c-.38.28-.85.36-1.31.43-3.01.46-7.31,1.68-10.3.76-2.42-.74-2.67-4.87-1.83-6.94.54-1.32,1.52-2.49,1.63-3.92.06-.7-.1-1.4-.14-2.1-.15-3.14,2.22-6.3,1.09-9.21-.22-.56-.56-1.08-.68-1.67-.16-.84.14-1.69.33-2.52.31-1.38.29-2.84.74-4.18.27-.8.71-1.52,1.01-2.3,1.46-3.82-.35-8.59,1.71-12.08l.93,15.06c.12,1.91.24,3.83.64,5.7.36,1.66.95,3.31.87,5.02-.02.36-.06.73.03,1.08.24.9,1.23,1.24,1.94,1.8.93.73,1.42,1.96,1.57,3.17.15,1.22,0,2.45-.1,3.67-.08.92-.14,1.87.17,2.73.13.35.32.69.36,1.06.08.67-.3,1.43.05,1.99.38.61,1.37.54,1.69,1.19.21.44-.02.99-.4,1.28ZM192.76,53.57c-.12-3.09-.23-6.2-.11-9.29-.46-2.59-.91-5.17-.88-7.79.04-3.39.87-6.72,1.31-10.08.57-4.29.51-8.65-.15-12.93-.19-1.26-.82-3.85,1.15-2.81,1.27.67,1.8,3.06,1.85,4.35.09,2.34-.71,4.62-1.04,6.94-.35,2.51-.15,5.06-.32,7.58-.22,3.35-1.09,6.63-1.54,9.96-.22,1.59-.33,3.19-.39,4.79.35,1.93.7,3.87.88,5.82.3,3.32.07,6.66.33,9.98.25,3.32,1.05,6.72,3.11,9.34-3.61-4.25-3.99-10.29-4.2-15.86Z"/></g></svg>