<?xml version="1.0" encoding="UTF-8"?><svg id="Layer_2" xmlns="http://www.w3.org/2000/svg" viewBox="0 0 165.25 94.09"><defs><style>.cls-1{fill:#e64259;}</style></defs><g id="Layer_1-2"><path class="cls-1" d="M163.1,24.82c-.58-2.84-1.33-5.77-3.16-8.02-1.88-2.32-4.69-3.66-7.45-4.82-8.68-3.65-8.59-6.99-17.79-8.74C115.14-.47,85.6.24,65.59.8c-4.39.12-8.8.27-13.19.56C50.2.58,47.95-.08,45.64,0c-2.44.09-4.75,1.01-7.02,1.92-1.19.48-2.38.96-3.54,1.51-1.94.37-3.87.79-5.79,1.28-5.77,1.48-11.59,3.69-16.18,7.37-2.62.79-5.06,1.89-7.03,3.81-2.63,2.56-3.96,6.23-4.36,9.89-.32,2.94-.09,5.9.24,8.84C-.33,46.37-.1,58.59.16,70.62c.08,3.49.18,7.09,1.62,10.26,3.53,7.75,13.29,10.03,21.75,11.01,3.63.42,7.28.79,10.93,1.09.5-.82,1.02-1.66.73-2.6-.56-1.78-2.56-1.78-4.13-1.88-2.2-.14-4.36-.92-6.15-2.22-1.83-1.33-3.26-4.07-1.74-5.75,2.23,3.09,5.21,6.54,9,6.11,1.31-.15,2.51-.76,3.78-1.1,3.39-.91,6.94.16,10.43.55,6.35.71,12.7-.9,18.89-2.49-2.8,1.18-5.61,2.36-8.41,3.53-1.56.66-3.15,1.32-4.84,1.52-4.17.5-8.03-1.1-11.43,2.12-.68.64-1.23,1.57-1.78,2.53,14.36,1,28.8,1.06,43.16.1,17.48-1.16,34.99.34,52.47-1.25,6.43-.59,13.14-1.67,18.3-5.56,6.54-4.93,9.31-13.36,10.79-21.41,2.43-13.32,2.28-27.1-.43-40.37ZM17.14,73.4c-1.29-1.6-2.18-4.41-3.47-5.78l3.38,3.59c.84.89,1.69,1.79,2.41,2.85.76,1.12,1.65,2.26,2.31,3.43-1.66-.61-3.35-2.5-4.63-4.09ZM21.05,58.19c-.93.91-2.29,1.22-3.59,1.33-2.94.25-5.9-.39-8.82,0-1.34.18-4.48,1.77-5.73,1.25-2.55-1.07,5.42-7.04,5.81-9.57.23-1.52-.19-3.05-.35-4.58s0-3.25,1.12-4.31c.44-.42,1.07-.7,1.65-.53.55.16.92.69,1.14,1.22.64,1.62.22,3.43.11,5.16-.11,1.74.28,3.78,1.83,4.56.64.32,1.37.37,2.07.45,1.25.15,2.48.43,3.67.82.48.16.97.35,1.34.7.94.9.67,2.58-.25,3.49ZM32.03,55.14c1.38-.31-1.37-21.11-1.78-23.06,1.12,2.38,1.89,5.45,2.75,8.16.82,2.59,1.67,5.32,1.71,8.29.04,2.98-1.02,6.23-2.68,6.6ZM71.19,26.37c1.2,2.97,1.25,6.39.14,9.4-.75,2.03-.96,3.46.51,5.16-3.7.74-1.03-4.37-.58-5.77.9-2.81-.51-5.87-.07-8.79ZM48.78,38.86c.97-5.67,1.87-11.92,2.95-17.33,1.87,3.15.75,17.49-1.61,20.86-.63.9-1.49.46-1.56-1.21-.03-.75.1-1.56.23-2.32ZM63.26,57.24c-5.92,1.92-11.88,3.85-18.02,4.85,4.95-1.68,10.41-3.78,12.66-8.5.88-1.85,1.41-4.21,3.31-4.97,1.37-.55,2.91,0,4.32.45,2.27.73,7.68,1.96,12.09,1.88,1.92-1.09,3.94-2.03,6.04-2.06-1,1.46-3.33,2.01-6.04,2.06-1.27.72-2.49,1.5-3.67,2.12-3.38,1.8-7.04,2.99-10.69,4.17ZM78.08,78.34c.9-1.17,2.13-2.31,3.17-3.43,1-1.06,2.16-1.96,3.31-2.85,1.55-1.2,3.1-2.39,4.64-3.59-1.77,1.37-2.99,4.18-4.76,5.78-1.77,1.59-4.08,3.48-6.36,4.09ZM111.68,85.4c-6.16.17-12.34-.26-18.43-1.26-1.13-.19-2.3-.39-3.41-.1-.71.19-1.36.57-2.08.74-1.44.35-3.55-.16-4.37-1.37,1.47-1.91,7.09-1.28,9.34-1.34,3.61-.1,7.24,0,10.82.53,2.39.36,4.75.9,7.16,1.01,2.46.11,4.96-.24,7.35.36-1.85,1.21-4.18,1.38-6.39,1.44ZM144.15,19.72c-2.1,6.51-6.67,11.87-10.05,17.81-.5.89-.99,1.83-1.06,2.84-.17,2.39,1.9,4.24,3.49,6.03,4.36,4.88,6.05,11.69,5.97,18.23-.04,3.33-.51,6.63-1.17,9.89-.37,1.82-.73,7.34-2.44,8.38-3.65,2.21-5.16-10.47-5.3-12.62-.34-5.26-.38-10.83-3.15-15.31-2.63-4.24-7.4-6.8-12.29-7.82-4.89-1.02-9.94-.67-14.92-.24-3.64.31-7.55.61-10.7-1.25,17.31-3.4,31.95-14.5,45.8-25.44,1.45-1.15,3.1-2.36,4.94-2.19.32.03.65.11.85.36.29.36.18.88.03,1.32ZM160.39,58.38c-.11,3.87-.22,7.78-1.27,11.51-1.01,3.6-2.9,6.95-5.45,9.68,3.2-3.57,4.6-8.44,4.99-13.22.38-4.78-.15-9.58-.34-14.37-.3-7.68.38-15.31,1.83-22.83.08-.71.21-1.44.43-2.17-.15.72-.29,1.45-.43,2.17-.39,3.57.73,6.92.76,10.58.05,6.21-.34,12.45-.51,18.66Z"/></g></svg>