<?xml version="1.0" encoding="UTF-8"?><svg id="Layer_2" xmlns="http://www.w3.org/2000/svg" viewBox="0 0 97 88.64"><defs><style>.cls-1{fill:#e54259;}</style></defs><g id="Layer_1-2"><path class="cls-1" d="M1.3,44.39c-1.24.25.67,14.59,1.25,19.66.55,4.77.73,5.43.91,5.95,2.19,6.31,16.92,9.8,16.92,9.8,28.81,6.75,27.52,8.58,38.28,8.79,7.86.15,14.69.21,22.11-3.64,2.51-1.3,8.31-4.4,11.97-10.97,1.66-2.98,2.33-5.68,2.83-8.31,2.9-15.26.65-30.55-.33-30.51-.81.04,2.17,10.39-3.49,20.03-5.37,9.15-15.48,12.49-20.45,14.13-13.05,4.31-24.16,2-32.92.17-9.96-2.08-28.2-5.89-34.25-18.79-1.35-2.88-2.2-6.44-2.82-6.31Z"/><path class="cls-1" d="M94.05,27.67c-.85-5.65-3.48-11.31-8.69-15.6-6.67-5.51-16.57-8.07-26.25-9.65-9.46-1.55-20.76-4.07-29.95-.87-2.08.72-4,1.64-5.82,2.67,1.33,1.1,2.02,2.63,3.13,3.83,1.27,1.38,3.04,2.48,4.58,3.72,1.54,1.24,2.89,2.71,3.01,4.36.06.75-.11,1.61.59,2.18.4.33,1,.49,1.59.6,3.78.73,7.8.18,11.56-.59,3.76-.77,7.48-1.77,11.38-1.97-2.97.24-5.19,2.03-7.91,2.93-4.63,1.54-10.15.38-15.13,1.2-.21.03-.42.07-.58.17-.23.13-.32.34-.41.54-1.58,3.78-2.71,7.68-5.02,11.27-.98-4.96,2.46-9.94,1.65-14.91-.43-2.66-2.06-5.11-3.92-7.4-.95-1.17-1.97-2.32-2.96-3.48-.57-.66-1.45-1.46-1.91-2.25-2.14,1.24-4.12,2.63-5.98,4.08C10.36,13.64,4.79,19.63,1.95,26.33.04,30.86-.55,35.74.55,40.38c.55-.31,1.1-.6,1.31-.79,1.04-.98,1.43-2.27,1.78-3.45-.37,1.06.64,2.15,1.95,2.71s2.86.73,4.35.97c1.22.2,2.45.46,3.44.99.99.54,1.72,1.41,1.58,2.29-2.23-.85-4.65-1.51-7.18-1.66-.82-.05-4.47.63-6.74.67.54,1.63,1.29,3.22,2.29,4.74,3.12,4.78,8.33,8.69,13.93,12.13.64.39,1.29.78,1.95,1.16,1.24-.75,3.46-1.1,4.7-1.18,2.31-.15,4.62.16,6.93.27,6.92.33,13.83-1.17,19.97-3.47,2.1-.79,4.2-1.72,5.54-3.13-1.02.99-2.04,1.98-3.06,2.97-.35.34-.71.7-.85,1.11-.37,1.1,1.09,2.19,2.66,2.36,1.57.17,3.13-.33,4.49-.91s2.67-1.28,4.2-1.59c1.93-.38,4.11-.06,5.67.85-3-.57-6.1.51-8.79,1.62-1.45.6-2.94,1.23-4.6,1.37-2.23.19-4.48-.57-6.02-1.73-.54-.41-1.1-.9-1.89-.94-.32-.02-.63.05-.93.11-6.48,1.28-13.19,1.94-19.91,1.96-2.63,0-5.08.06-7.43.74,6.85,3.93,14.51,7.21,22.98,8.77,10.68,1.97,22.35,1.03,32.15-2.58,4.58-1.69,8.82-3.98,11.76-7.02,4.21-4.35,5.39-9.79,6.32-15.04.99-5.64,1.81-11.35.97-17ZM72.98,46.31c-.49-.66-1.05-1.31-1.84-1.81-.9-.57-2.05-.91-2.96-1.47-.7-.43-1.25-.97-2.01-1.33-.81-.38-1.8-.52-2.76-.64-2.16-.29-4.32-.57-6.52-.62-2.01-.04-4.01.12-6,.27-2.21.17-4.43.42-6.65.51,1.4-.63,3.5-.63,5.07-1.12,1.47-.47,2.81-1.12,4.1-1.8,1.78-.94,3.49-1.97,4.84-3.23,1.52-1.42,2.51-3.09,3.73-4.65,2.08-2.67,4.84-5.06,7.9-7.2.36-.29.74-.56,1.17-.81-.4.26-.79.53-1.17.81-1.82,1.44-2.91,3.34-4.25,5.06-1.99,2.55-4.7,4.81-6.47,7.45-.4.6-.76,1.29-.44,1.91.21.42.7.74,1.2,1.01,1.2.64,2.58,1.11,4.03,1.35,1.25.21,2.55.27,3.78.53,2.97.64,5.23,2.48,6.41,4.53,1.19,2.05,1.43,4.31,1.48,6.53-.52-1.84-1.41-3.62-2.65-5.27Z"/></g></svg>