<?xml version="1.0" encoding="UTF-8"?><svg id="Layer_2" xmlns="http://www.w3.org/2000/svg" viewBox="0 0 118.45 82.58"><defs><style>.cls-1{fill:#e54259;}.cls-2{fill:#fff;}</style></defs><g id="Layer_1-2"><path class="cls-1" d="M2.74,45.07c-.24,3.03-.77,6.43,1.27,8.8.97,1.12,2.38,1.83,3.75,2.5,16.46,8.08,32.92,16.16,49.56,23.9,2.46,1.14,5.03,2.3,7.77,2.31,2.49,0,4.86-.94,7.09-1.98,9.66-4.55,17.91-11.24,26.06-17.86,4.45-3.62,8.9-7.23,13.35-10.85,1.27-1.03,2.57-2.1,3.37-3.48.81-1.4,1.04-3.01,1.26-4.58.69-4.97,1.38-9.94,2.07-14.91.2-1.42.37-2.97-.43-4.19-.73-1.11-2.09-1.7-3.37-2.22-16.49-6.67-33.23-12.8-49.96-18.93C59.94,1.89,55.25.19,50.33.02c-4.5-.16-8.94.96-13.2,2.31-9.18,2.89-17.98,6.86-26.11,11.77C6.52,16.8.52,21.02.05,26.49c-.51,5.9,3.2,12.18,2.69,18.58Z"/><path class="cls-2" d="M16.43,19.51c2.01,1.03,4.26,1.64,6.56,1.77-2.59.16-5.13.82-7.43,1.92.43-.71-.12-1.64-.88-2.05s-1.68-.48-2.54-.68-1.76-.61-2.07-1.37c2.23-.29,4.53-.05,6.64.67"/><path class="cls-2" d="M14.09,40.98c2.01,1.03,4.26,1.64,6.56,1.77-2.59.16-5.13.82-7.43,1.92.43-.71-.12-1.64-.88-2.05s-1.68-.48-2.54-.68-1.76-.61-2.07-1.37c2.23-.29,4.53-.05,6.64.67"/><path class="cls-2" d="M39.3,23.64c.47,1.44-.03,3.11-1.22,4.14,3.04.37,5.84-2.2,8.88-1.79-2.93-.3-6.09-.7-8.22-2.58"/><path class="cls-2" d="M41.7,59.6c.47,1.44-.03,3.11-1.22,4.14,3.04.37,5.84-2.2,8.88-1.79-2.93-.3-6.09-.7-8.22-2.58"/><path class="cls-2" d="M57.47,8.27l.98,3.7c1.33-.91,2.65-1.81,3.98-2.72-1.05,0-2.11,0-3.16,0,.03-1.57.16-3.14.4-4.7-.83.42-1.61.92-2.32,1.49-.4.32-.8.69-.93,1.17s.13,1.07.65,1.18"/><path class="cls-2" d="M32.04,7.75l4.77-.77c-1.5.55-2.86,1.43-3.93,2.55-.33-.91-.92-1.74-1.69-2.38"/><path class="cls-2" d="M76.27,24.52l2.58-.24c1.35-.13,2.06,1.5.95,2.23-.3.19-.6.38-.91.56-.22.13-.48.25-.73.2-.19-.04-.33-.18-.47-.3-.78-.74-1.56-1.48-2.34-2.22"/><path class="cls-2" d="M67.63,10.54l6.56-.61c-1.12,1.24-2.45,2.31-3.94,3.15-.22.13-.48.25-.73.2-.19-.04-.33-.18-.47-.3-.78-.74-1.56-1.48-2.34-2.22"/><path class="cls-2" d="M89.99,17.31c1.05.29,2.07.68,3.04,1.16-1.78.65-3.53,1.37-5.23,2.17-.15-1.14.47-2.34,1.53-2.95"/><path class="cls-2" d="M114.31,36.75c-.32-1.01-.67-2-1.04-2.97-.09-.24-.2-.49-.36-.6-.16-.11-.34-.04-.5.03-.61.25-1.21.57-1.8.96.34-.22.93-2.31,1.35-2.82.57-.69,1.42-1.39,2.13-.81,1.32,1.07.69,4.55.22,6.22Z"/><path class="cls-2" d="M74.21,44.16c-1.41.7-2.71,1.57-3.85,2.6l3.56-.35c1.1-.11,1.6-1.33.84-2.08l-1.09-1.09"/><path class="cls-2" d="M57.62,32.76c-1.66,1.13-3.3,2.29-4.9,3.48,2.78.29,5.52.94,8.11,1.92.7-1.88,1.04-3.88,1-5.87-1.27.59-2.57,1.14-3.89,1.63"/><path class="cls-2" d="M45.26,2.85c-1.66,1.13-3.3,2.29-4.9,3.48,2.78.29,5.52.94,8.11,1.92.7-1.88,1.04-3.88,1-5.87-1.27.59-2.57,1.14-3.89,1.63"/><path class="cls-2" d="M101.29,25.09c-2.19-.64-4.54-.82-6.81-.52,2.5-.64,4.85-1.76,6.86-3.26-.26.78.47,1.58,1.31,1.85s1.75.16,2.63.19,1.86.27,2.32.96c-2.12.7-4.43.89-6.65.57"/><path class="cls-2" d="M72.97,39.18c-.77-1.33-.66-3.06.29-4.28-3.06.2-5.24,3.24-8.3,3.4,2.94-.25,6.12-.44,8.62,1"/><path class="cls-2" d="M64.75,74.15l-.89-1.74c-.41-.8-1.58-.96-2.22-.3l-1.95,2.01,1.72-.33c.75-.14,1.49.31,1.61,1.01.19,1.13.32,2.27.4,3.41.72-.56,1.37-1.2,1.95-1.89.32-.39.63-.83.65-1.32s-.36-1.03-.89-1.04"/><path class="cls-2" d="M92.3,58.06l-.89-1.74c-.41-.8-1.58-.96-2.22-.3l-1.95,2.01,1.72-.33c.75-.14,1.49.31,1.61,1.01.19,1.13.32,2.27.4,3.41.72-.56,1.37-1.2,1.95-1.89.32-.39.63-.83.65-1.32s-.36-1.03-.89-1.04"/><path class="cls-2" d="M92.17,40.43l-4.51,1.64c1.35-.81,2.49-1.93,3.29-3.22.52.83,1.28,1.53,2.18,2.02"/><path class="cls-2" d="M20.49,31.68l-6.3,1.82c.82-1.42,1.9-2.72,3.17-3.82.19-.16.41-.34.67-.33.19,0,.37.11.53.21.93.58,1.85,1.16,2.78,1.74"/><path class="cls-2" d="M36.1,43.57c-1.09-.09-2.18-.28-3.23-.57,1.6-.96,3.15-2,4.65-3.1.39,1.09.05,2.38-.85,3.17"/><path class="cls-2" d="M107.94,50.27c-1.09-.09-2.18-.28-3.23-.57,1.6-.96,3.15-2,4.65-3.1.39,1.09.05,2.38-.85,3.17"/><path class="cls-2" d="M6.32,23.58c.88.98,1.8,1.92,2.76,2.82.24.23.5.46.84.51.33.06.67-.08.98-.21,1.14-.5,2.24-1.07,3.3-1.7-.61.36-1.27,2.84-1.97,3.55-.95.96-2.44,2.03-3.97,1.67-2.84-.67-2.44-4.67-1.93-6.64Z"/><path class="cls-2" d="M46.33,44.05c1.01.2,2.09.38,3.23.53.28.04.6.08,1.07.03.46-.05.96-.17,1.43-.28,1.73-.43,3.43-.87,5.07-1.33-.95.27-2.48,1.36-3.64,1.77-1.57.56-3.94,1.28-6.02,1.45-3.85.32-2.34-1.31-1.14-2.18Z"/><path class="cls-2" d="M47.31,67.75c.88.98,1.8,1.92,2.76,2.82.24.23.5.46.84.51.33.06.67-.08.98-.21,1.14-.5,2.24-1.07,3.3-1.7-.61.36-1.27,2.84-1.97,3.55-.95.96-2.44,2.03-3.97,1.67-2.84-.67-2.44-4.67-1.93-6.64Z"/><path class="cls-2" d="M69.72,63.33c.88.98,1.8,1.92,2.76,2.82.24.23.5.46.84.51.33.06.67-.08.98-.21,1.14-.5,2.24-1.07,3.3-1.7-.61.36-1.27,2.84-1.97,3.55-.95.96-2.44,2.03-3.97,1.67-2.84-.67-2.44-4.67-1.93-6.64Z"/><path class="cls-2" d="M42.29,14.87c1.23-.94,2.31-2.04,3.21-3.26-1.99.59-3.98,1.18-5.98,1.76,1.17.77,2.33,1.53,3.5,2.3"/><path class="cls-2" d="M23.71,17.8c1.23-.94,2.31-2.04,3.21-3.26-1.99.59-3.98,1.18-5.98,1.76,1.17.77,2.33,1.53,3.5,2.3"/><path class="cls-2" d="M32.25,62.8c1.23-.94,2.31-2.04,3.21-3.26-1.99.59-3.98,1.18-5.98,1.76,1.17.77,2.33,1.53,3.5,2.3"/><path class="cls-2" d="M64.55,21.13c.7-.72,1.39-1.44,2.08-2.17.75-.8.11-2.03-1.04-2.04-1.31-.01-2.62-.1-3.92-.27-.81-.11-1.53.44-1.57,1.19-.04.81-.02,1.62.07,2.42.1.94,1.29,1.43,2.12.87.56-.37,1.12-.74,1.7-1.09"/><path class="cls-2" d="M84.19,17.62c-1.31.97-2.09,2.06-2.27,3.17-.19-1.25-1.01-2.49-2.38-3.6.89.21,2.06-.05,2.59-.42s.62-.81.87-1.22.77-.85,1.74-1c.35,1.08.04,2.19-.89,3.21"/><path class="cls-2" d="M52.6,17.16c-1.31.97-2.09,2.06-2.27,3.17-.19-1.25-1.01-2.49-2.38-3.6.89.21,2.06-.05,2.59-.42s.62-.81.87-1.22.77-.85,1.74-1c.35,1.08.04,2.19-.89,3.21"/><path class="cls-2" d="M84.7,32.63c-1.82.22-3.92-.02-5.21-.6-.49,1.47,2.73,2.83,2.2,4.3.4-1.42.92-2.94,3.3-3.97"/><path class="cls-2" d="M101.83,43.17l-4.66.46c1.13.64,2.27,1.29,3.4,1.93,0-.51.01-1.02.02-1.53,1.98.02,3.96.09,5.92.21-.52-.4-1.15-.78-1.86-1.13-.4-.2-.87-.39-1.47-.45s-1.35.06-1.49.31"/><path class="cls-2" d="M97.48,29.76l.94,2.31c-.68-.73-1.78-1.39-3.18-1.91,1.15-.16,2.19-.44,3.01-.81"/><path class="cls-2" d="M74.95,58.18l.73,3.18c-1.55-.54-2.89-1.19-3.95-1.91-.16-.11-.31-.23-.24-.35.05-.09.22-.16.39-.23.94-.38,1.87-.75,2.81-1.13"/><path class="cls-2" d="M95.39,48.88l.73,3.18c-1.55-.54-2.89-1.19-3.95-1.91-.16-.11-.31-.23-.24-.35.05-.09.22-.16.39-.23.94-.38,1.87-.75,2.81-1.13"/><path class="cls-2" d="M113.71,43.17c-.13.18-.27.35-.43.52-.5.54-1.42.54-1.95.02-.56-.55-1.16-1.08-1.8-1.61,1.44-.07,2.94.24,3.71.75"/><path class="cls-2" d="M62.85,67.46c1.28-.15,2.53-.32,3.75-.5.3-.04.62-.09.76-.17.13-.08.06-.16-.03-.24-.32-.3-.71-.59-1.19-.87.28.16,2.9.46,3.54.66.87.28,1.75.69,1.01,1.03-1.36.63-5.74.32-7.83.09Z"/><path class="cls-2" d="M58.24,48c-.87-.68-1.96-1.31-3.25-1.87.25,1.01.49,2.01.74,3.02,1.22-.47,2.45-.94,3.67-1.41"/><path class="cls-2" d="M36,18.55c-.97-.55-1.95-1.1-2.96-1.64-.7-.38-1.58-.08-1.93.6-.16.32-.35.64-.57.95-.54.79,0,1.82,1,1.91,1.64.15,3.33.23,5.02.22-.74-.62-1.42-1.25-2.03-1.89"/><path class="cls-2" d="M108.67,37.17c-1.41-.81-2.86-1.6-4.36-2.38-.38,1.34-1.22,2.67-2.47,3.92,2.37.34,4.88.51,7.39.5-.74-.62-1.42-1.25-2.03-1.89"/><path class="cls-2" d="M80.74,63.77c.82-1.06,1.06-2.19.69-3.29.79,1.21,2.19,2.35,4.07,3.33-.98-.13-2,.22-2.33.63s-.21.85-.26,1.27-.35.9-1.22,1.12c-.86-1.03-1.1-2.14-.68-3.22"/><path class="cls-2" d="M66.73,52.06c1.68-.37,3.85-.31,5.39.15-.23-1.48-4.04-2.54-4.23-4.03.29,1.42.52,2.96-1.31,4.17"/><path class="cls-2" d="M48.28,39.45l4.34-.84c-1.42-.54-2.84-1.07-4.26-1.61.24.5.48,1,.72,1.5-1.95.15-3.92.25-5.9.3.7.35,1.5.67,2.37.95.49.16,1.04.31,1.66.32s1.3-.17,1.31-.43"/><path class="cls-2" d="M21.01,57.75l4.34-.84c-1.42-.54-2.84-1.07-4.26-1.61.24.5.48,1,.72,1.5-1.95.15-3.92.25-5.9.3.7.35,1.5.67,2.37.95.49.16,1.04.31,1.66.32s1.3-.17,1.31-.43"/><path class="cls-2" d="M62.87,55.3l-2.04-2.18c1.02.66,2.41,1.21,4.04,1.6-1.05.25-1.94.62-2.56,1.05"/><path class="cls-2" d="M69.01,25.18l-2.25-3.05c1.78.4,3.41.92,4.79,1.54.21.09.42.2.41.33,0,.09-.14.18-.27.25-.74.45-1.47.89-2.21,1.34"/><path class="cls-2" d="M38.32,55.34l-2.25-3.05c1.78.4,3.41.92,4.79,1.54.21.09.42.2.41.33,0,.09-.14.18-.27.25-.74.45-1.47.89-2.21,1.34"/><path class="cls-2" d="M54.08,23.59c.12-.53.37-1.05.74-1.56,1.2.78,2.5,1.53,3.88,2.26-1.38.19-2.99.02-3.99-.42"/><path class="cls-2" d="M56.39,64c.12-.53.37-1.05.74-1.56,1.2.78,2.5,1.53,3.88,2.26-1.38.19-2.99.02-3.99-.42"/><path class="cls-2" d="M79.09,13.86c-1.23.42-2.43.86-3.57,1.33-.29.12-.58.24-.65.4-.07.16.09.32.26.47.62.55,1.33,1.09,2.12,1.6-.46-.3-3.57-.62-4.45-.96-1.2-.46-2.54-1.19-2.08-1.93.86-1.37,5.89-1.17,8.37-.91Z"/><path class="cls-2" d="M10.85,49.22c-.26.49-.49,1.01-.69,1.56-.05.14-.1.29-.04.52.06.22.2.47.34.69.53.84,1.07,1.66,1.64,2.46-.33-.46-1.7-1.2-2.21-1.76-.7-.76-1.59-1.91-1.8-2.92-.37-1.86,1.67-1.13,2.75-.55Z"/><path class="cls-2" d="M31.15,33.72c-1.23.42-2.43.86-3.57,1.33-.29.12-.58.24-.65.4-.07.16.09.32.26.47.62.55,1.33,1.09,2.12,1.6-.46-.3-3.57-.62-4.45-.96-1.2-.46-2.54-1.19-2.08-1.93.86-1.37,5.89-1.17,8.37-.91Z"/><path class="cls-2" d="M32.39,49.7c-1.23.42-2.43.86-3.57,1.33-.29.12-.58.24-.65.4-.07.16.09.32.26.47.62.55,1.33,1.09,2.12,1.6-.46-.3-3.57-.62-4.45-.96-1.2-.46-2.54-1.19-2.08-1.93.86-1.37,5.89-1.17,8.37-.91Z"/><path class="cls-2" d="M88.86,34.49c1.18.6,2.56,1.12,4.09,1.56-.73-.97-1.46-1.93-2.18-2.9-.97.56-1.94,1.12-2.92,1.69"/><path class="cls-2" d="M93.08,21.92c1.18.6,2.56,1.12,4.09,1.56-.73-.97-1.46-1.93-2.18-2.9-.97.56-1.94,1.12-2.92,1.69"/><path class="cls-2" d="M37.14,33.97c1.18.6,2.56,1.12,4.09,1.56-.73-.97-1.46-1.93-2.18-2.9-.97.56-1.94,1.12-2.92,1.69"/><path class="cls-2" d="M77.47,42.14c1.77.67,3.58,1.33,5.42,1.97-.27-1.35-.1-2.71.53-4.04-2.49-.14-5.03-.09-7.48.13,1.02.54,1.99,1.1,2.9,1.68"/></g></svg>