<?xml version="1.0" encoding="UTF-8"?><svg id="Layer_2" xmlns="http://www.w3.org/2000/svg" viewBox="0 0 173.99 118.57"><defs><style>.cls-1{fill:#e54259;}</style></defs><g id="Layer_1-2"><path class="cls-1" d="M57.28,103.06c8.77,1.01,15.17-1.14,21.17-3.15,3.51-1.18,16.45-5.68,24.85-16.14,4.09-5.1,3.72-7.4,8.3-9.82,6.05-3.19,10.1-.53,18.17-3.69,5.96-2.34,9.83-6.81,15.6-9.38,5.53-2.46,12.35-2.97,18.91-3.58,2.64-.25,5.44-.57,7.31-1.9,2.84-2.01,2.57-5.51,2.12-8.58-1.01-6.85-2.02-13.71-3.03-20.56-.19-1.26-.38-2.55-1.11-3.74-.79-1.29-2.16-2.36-3.58-3.33-11.99-8.18-28.59-10.52-44.09-11.61-9.78-.69-20.1-.96-28.31,2.45-8.21,3.4-13.14,11.71-8.06,18.31-3.86-2.43-4.97-6.62-3.97-10.07s3.73-6.36,6.4-9.17c-15.97-2.89-25.15-5.29-30.67-7.03-1.36-.43-4.42-1.42-8.6-1.85-6.22-.65-10.73.36-14.34,1-4.86.86-11.88,1.73-21.15,1.66-.38,1.83-.38,4.06,1.41,5.54,1.9,1.57,5.06,1.68,5.03,1.87-.03.17-2.64.28-4.91-.75-3.46-1.57-4.2-4.91-4.35-5.69C1.28,10.62,1.62,23.42,11.09,31.23c.76.63,1.62,1.25,2.68,1.49.92.21,1.88.12,2.8.01,5.48-.6,10.96-1.21,16.45-1.81,1.66-.18,3.41-.36,5.04.12,1.45.43,2.61,1.32,3.76,2.13,6.58,4.63,15.05,7.71,23.67,8.59-9.42-1.32-18.66-4-27.06-7.85.6.51.37,1.39-.42,1.6,4.14,3.1,7.48,6.81,9.73,10.8-5.07-1.41-9.44-4.5-11.64-8.22-.6-1.01-1.25-2.22-2.65-2.56-.82-.2-1.67-.02-2.45.15-4.71,1.06-9.41,2.12-14.12,3.18-.85.19-1.76.42-2.24.97-.51.59-.37,1.4-.22,2.13.67,3.21,1.36,6.48,3.22,9.49,1.86,3.02,5.08,5.81,9.23,6.89,2.69.7,5.53.64,8.23.36,14.13-1.48,25.32-8.54,38.24-12.57,10.21-3.18,21.47-4.45,32.62-5.69-2.96-.32-5.56,1.09-7.34,2.73-1.78,1.64-3.11,3.6-5.29,4.95-2.48,1.54-5.8,2.12-8.95,2.82-12.27,2.74-23.12,7.78-34.56,11.87-5.08,1.82-10.67,3.48-16.5,2.71-1.57-.21-1.88,12.6-1.79,13.8.35,4.39,1.88,8.66,3.05,13,2.57,9.55,21.27,10.57,22.67,10.73Z"/><path class="cls-1" d="M2.21,14.45C.59,19.75,0,25.37.72,30.83c.34,2.73,1.07,5.39,2.12,7.93,1.05,2.54,2.32,5,3.58,7.47,1.27,2.46,2.5,4.95,3.84,7.35,1.34,2.39,2.82,4.72,4.83,6.46,1.01.86,2.14,1.59,3.33,2.17,1.18.61,2.52.91,3.86,1.75,1.3.87,2.24,2.11,2.86,3.49.62,1.39.82,2.88.88,4.32.11,2.9-.43,5.63-.22,8.29.14,2.73.47,5.45.98,8.13,1.01,5.36,2.84,10.59,5.71,15.17,1.49,2.24,3.16,4.37,5.2,6.12,2,1.77,4.3,3.21,6.74,4.3,4.9,2.19,10.42,3.01,15.79,2.73,2.69-.13,5.29-.68,7.84-1.6,2.55-.91,5.08-2.05,7.61-3.16,5.05-2.2,9.8-4.9,14.36-8.03,4.57-3.12,9.28-6.19,14.2-8.82,4.95-2.68,10.07-4.78,15.13-7.06l15.23-6.69,7.64-3.31c1.28-.55,2.56-1.09,3.85-1.61,1.27-.51,2.63-1.05,3.98-1.38,2.68-.76,5.39-1.39,8.1-1.98,2.7-.62,5.43-1.14,7.96-2.19,1.26-.53,2.44-1.23,3.44-2.15,1-.92,1.81-2.05,2.44-3.26,1.27-2.44,1.7-5.26,1.63-8.03.17,2.76-.15,5.61-1.36,8.16-.6,1.26-1.41,2.44-2.42,3.43-1.02.99-2.24,1.75-3.51,2.33-2.57,1.16-5.32,1.75-8,2.44-2.69.67-5.36,1.37-8,2.19-1.34.37-2.56.88-3.85,1.42-1.27.54-2.54,1.1-3.8,1.66l-7.57,3.43-15.12,6.94-7.54,3.5c-2.51,1.18-5.02,2.32-7.4,3.67-4.85,2.63-9.44,5.65-14.01,8.81-2.29,1.57-4.65,3.1-7.09,4.48-2.44,1.38-4.95,2.64-7.5,3.78-2.54,1.13-5.06,2.29-7.73,3.26-2.66.98-5.54,1.61-8.39,1.75-2.85.15-5.7-.03-8.51-.52-2.81-.47-5.57-1.29-8.17-2.47-2.6-1.18-5.06-2.73-7.2-4.65-2.17-1.89-3.94-4.16-5.5-6.54-3.01-4.85-4.86-10.29-5.87-15.82-.51-2.77-.85-5.56-.95-8.38-.16-2.89.42-5.67.36-8.32-.03-1.32-.2-2.63-.69-3.79-.49-1.14-1.28-2.21-2.28-2.9-1-.67-2.4-1.05-3.68-1.72-1.28-.65-2.49-1.46-3.58-2.42-2.16-1.95-3.66-4.42-4.98-6.87-1.32-2.47-2.51-4.97-3.73-7.46-1.2-2.5-2.41-5.01-3.41-7.63-1.01-2.61-1.68-5.37-1.95-8.15-.6-5.56.19-11.21,2.02-16.44Z"/></g></svg>