<?xml version="1.0" encoding="UTF-8"?><svg id="Layer_2" xmlns="http://www.w3.org/2000/svg" viewBox="0 0 148.73 97.15"><defs><style>.cls-1{fill:#e54259;}</style></defs><g id="Layer_1-2"><path class="cls-1" d="M118.66,60.71c3.41-3.49,6.92-7.12,8.97-11.96s2.3-11.26-.6-15.4c-3.12-4.45-8.49-4.81-13.23-5.47-7.98-1.1-15.79-3.96-22.96-8.4-4-2.48-7.82-5.45-12.04-7.3-3.88-1.7-7.99-2.4-12.07-3.08l-20-3.37c-1.99-.34-4.09-.65-5.94.3-1.93,1-3.24,3.21-4.44,5.32-3.32,5.81-6.64,11.62-9.96,17.43-1.04-4.37,1.3-8.81,3.72-12.26,5.25-7.48,5.87-11.9,4.96-14.26-1.47-3.84-10.07-2.05-14.93-.16-3.56,1.38-9.57,3.72-14.27,11C-3.37,27.43,1.27,47.19,1.56,48.33c4.2,16.92,15.83,23.39,18.23,24.72,2.23,1.24,4.09,2.25,13.89,3.39,15.17,1.76,30.37,3.07,45.59,3.93,3.84.22,7.7.4,11.5-.31,10.69-2.02,19.57-10.85,27.89-19.35ZM18.94,45.2c-.85-1.29-1.71-2.27-2.55-3.68-1.48-2.48-3.68-7.79-4.22-11.3,1.43,3.15,2.81,6.35,4.45,8.67,1.91,2.7,3.99,4.4,5.61,8.6,1.46,3.79,1.95,8.15,2.09,11.69-1.11-5.24-3.19-10.65-5.39-13.98ZM66.86,61c-1.14,1.49-2.31,2.85-3.48,4.04.46-2.56,1.99-5.31,3.34-7.8.91-1.69,1.86-3.62,2.4-5.39-.18-.35-.28-.79-.16-1.48l.6-.9c-.02.72-.19,1.53-.45,2.38.3.59.83.93.93,1.81.23,1.96-1.62,5.29-3.19,7.34ZM61.92,31.44c-1.31-.19-2.72-.38-4-.13-1.12.22-1.96.74-2.67,1.28-1.93,1.46-3.25,3.18-3.83,4.97.78-2.4,1.34-11.6,9.19-9.16,0-1.68-.44-3.37-1-5.03,2.79.69,2.21,2.98,3.37,4.56,1.2,1.63,4.35,2.49,7.24,3.19l15.73,3.85c-8.01-1.18-16.01-2.35-24.02-3.53ZM103.14,49.49c-1.27,1.25-2.54,1.78-3.77,3.64-.61.91-1.12,2.03-1.64,3.1-1.98,4.12-4.48,8.44-6.75,9.95.8-2.22,1.82-4.44,2.97-6.43.34-.59.71-1.21.91-1.87.15-.47.18-.89.2-1.28.17-3.99-1.01-6.3-2.16-8.46l4.62,3.2.18,1.58c1.64-2.72,3.31-2.75,5.01-4.05,1.94-1.48,3.98-4.73,5.87-7.8-1.69,3.17-3.52,6.55-5.43,8.42Z"/><path class="cls-1" d="M145.01,55.81c-4.22-6.45-5.21-5.15-7.18-9.38-.47-1.01-1.27-2.93-2.84-3.6-.3-.13-1.42-.6-2.31.12-1.01.82-.53,2.37-1.6,5.51-.52,1.54-1.5,2.92-1.51,4.61,0,1.98,1.32,3.46,2.52,4.64,1.52,1.49,3.03,2.98,4.55,4.46.41.4.84.84,1.02,1.48.31,1.15-.42,2.45-1.31,2.75-.89.3-1.84-.16-2.62-.81-1.83-1.52-3.06-4.01-4.59-6.04-.38-.51-.81-1.01-1.33-1.23-1.21-.5-2.45.73-3.28,1.56-4.17,4.11-6.26,6.18-6.37,6.9-.54,3.28,1.65,7.45,5.3,10.03,7,.96,12.31,1.66,15.09,2.12.45.07,1.5.23,2.63-.39,1.46-.81,2.23-2.88,2.98-4.72,3.15-7.68,4.67-7.68,4.56-10.63-.07-1.8-1.28-3.66-3.71-7.38Z"/><path class="cls-1" d="M.28,53.58c4.24,8.36,2.84,21.82,10.95,27.39,2.24,1.35,4.71,1.74,7.4,2.08,2.83.33,8.44.98,11.26,1.3,3.48.44,13.25,1.72,16.87,2.19,3.76.49,7.4,1.07,10.92,1.07,3.51.02,6.86-.55,9.69-2.08,2.83-1.66,6.79-4.28,10.3-2.22,2.17,1.21,2.93,2.8,4.54,4,3.45,2.51,8.02,2.56,12.25,3.19,0,0,5.63.71,5.63.71,6.57.8,15.84,2.19,22.48,3.11,0,0,5.62.8,5.62.8,3.25.4,7.14,1.28,9.21-1.6,1.37-1.88,1.14-5.38,1.31-7.78.23-2.73,1.28-6.67,4.53-6.95,0,0,.02.3.02.3-3.97.84-3.75,6.29-3.69,9.5.4,11.54-9.57,8.33-17.22,7.69-10.97-1.22-22.93-2.43-33.83-3.72-1.88-.29-3.77-.69-5.53-1.47-1.77-.75-3.37-1.97-4.62-3.4-.64-.68-1.3-1.35-2.08-1.77-2.71-1.32-5.13,1.1-7.52,2.28-6.94,3.66-15.04,2.24-22.42,1.16,0,0-22.44-3.33-22.44-3.33-3.18-.54-8.13-.96-11.16-2.17C1.04,78.95,4.1,63.44,0,53.68c0,0,.28-.11.28-.11H.28Z"/><path class="cls-1" d="M101.21,94.39c-2.21-4.49-6.85-7.19-11.32-9.43-3.56-1.79-7.45-3.5-11.38-2.88-2.92.46-6.6,2.5-8.34,4.96-3.13,4.43,1.38,3.7,4.9,4.07,8.73.94,17.31,3.3,26.14,3.27Z"/></g></svg>