<?xml version="1.0" encoding="UTF-8"?><svg id="Layer_2" xmlns="http://www.w3.org/2000/svg" viewBox="0 0 129.46 111.73"><defs><style>.cls-1{fill:#e54259;}</style></defs><g id="Layer_1-2"><path class="cls-1" d="M87.81,93.71c1.7-7.49.39-15.77-4.68-20.92-1.47-1.5-3.22-2.7-4.57-4.32-1.34-1.62-2.26-3.83-1.68-5.99.49-1.8,1.84-3.12,3.3-4.4.06-1.2.27-2.4.65-3.53-1.14-.21-2.29-.39-3.44-.44-2.21-.08-4.46.09-6.65-.63-3.23-1.07-5.1-3.71-5.66-6.02-.56-2.31-.23-4.55-1.04-6.86-.81-2.33-2.74-4.53-5.26-6.45-7.71,3.03-10.91,7.54-13.41,15.82-1.33,4.4-2.7,8.9-5.75,12.21-4.59,4.99-12.44,6.67-17.35,11.38-.19.19-.39.38-.58.57,13.47,11.43,30.88,17.5,47.92,21.97,7.07,1.85,14.86,4.61,21.7,4.65-2.65-.84-4.34-3.36-3.51-7.02Z"/><path class="cls-1" d="M45.59,44.79c2.22-5.43,4.79-11.59,11.63-11.77-1.79-1.18-3.8-2.23-5.86-3.09-4.11-1.7-8.47-2.79-12.86-3.7-6.42,2.43-14.52,3.15-22.76,2-3.18-.45-6.37-1.16-9.54-1.87-.75-.17-1.53-.34-2.33-.51-4.84,15,2.27,33.47,14.65,45.38.24.23.49.46.74.69,12.12-5.64,21.46-15.19,26.34-27.14Z"/><path class="cls-1" d="M28.93,26.05c1.49-.25,3.02-.57,4.58-.77-.19-.03-.38-.07-.56-.11,1.23-3.24-3.77-7.15-8.78-9.04-3.73-1.4-7.76-2.25-11.48-3.6-2.62,2.35-4.87,5.05-6.59,8.16-.63,1.14-1.17,2.32-1.64,3.52,8.27,2.11,16.9,3.11,24.47,1.84Z"/><path class="cls-1" d="M108.22,3.13C97.83-.27,86.85.31,76.12.27c-13.03-.05-26.24-1.06-38.9,1.19-8.14,1.44-16.17,4.48-22.48,9.36,5.12.46,10.49,2.3,14.51,5.16,3.69,2.61,6.26,5.94,10.34,8.24,6.69,3.78,15.91,3.95,22.18,8.09,2.97,1.96,4.82,4.54,6.29,7.06,1.57,2.7,2.81,5.44,3.7,8.18.38,1.17.75,2.43,1.98,3.41,1.08.87,2.62,1.36,4.07,1.81,1.1.34,2.2.67,3.31,1.01.85-2.06,2.25-3.75,4.2-4.47,1.11-.41,2.3-.54,3.48-.6,1.32-.06,2.67-.01,3.93.38,3.03.94,5.18,3.79,6.08,6.83.3,1,.48,2.08.21,3.09-.26.97-.91,1.78-1.56,2.54-1.36,1.6-2.83,3.15-4.6,4.28-1.77,1.14-3.89,1.84-5.99,1.6-2.25-.25-4.35-1.62-5.49-3.58-.51-.87-.85-1.91-1.04-3.02-.64,1.16-.99,2.34-.64,3.58.23.8.74,1.46,1.27,2.07,2.04,2.34,4.55,4.21,6.68,6.47s3.92,5.07,4.05,8.31c.11,2.81-1.03,5.59-1.47,8.41-.29,1.86-.13,2.84.3,3.05,2.06,1.04,11.65-15.52,12.03-15.28.19.12-1.51,4.48-5.1,9.42-3.67,5.03-6.45,6.71-5.86,9.18.28,1.17,1.37,2.66,4.86,4.08,3.84-1.01,7.16-3.4,9.55-8.05,7.55-14.7,10.6-31.97,17.81-47.04,2.92-6.09,6.16-12.43,5.56-19.34-.91-10.54-10.77-19.16-21.17-22.56Z"/><path class="cls-1" d="M0,39.11c1.84,4.27,1.95,9.03,2.1,13.6,0,10.33,2.01,17.21,10.09,24.03,17.86,14.18,39.1,24.21,61.23,29.66,6.66,1.63,13.45,2.76,20.27,3.53,1.8.11,4.95.7,6.67.36,2.15-.42,3.17-2.68,3.98-4.57.89-2.09,1.68-4.26,2.48-6.41,7.85-21.62,15.09-43.45,22.65-65.18-7.12,21.88-14.07,43.81-21.66,65.53-1.27,3.26-2.16,6.66-4.06,9.67-2.22,3.5-6.81,2.15-10.19,2.04-5.72-.44-11.53-1.33-17.16-2.47-19.27-4-37.69-11.82-54.07-22.72-7.61-5.13-15.9-10.74-19.3-19.68-3.37-8.92.14-18.52-3.03-27.41h0Z"/></g></svg>