<?xml version="1.0" encoding="UTF-8"?><svg id="Layer_2" xmlns="http://www.w3.org/2000/svg" viewBox="0 0 197.55 81.97"><defs><style>.cls-1{fill:#e64259;}</style></defs><g id="Layer_1-2"><path class="cls-1" d="M197.45,40.5c-.44-7.71-2.22-15.34-5.26-22.44-1.36-3.18-3.02-6.33-5.59-8.64-4.25-3.82-10.29-4.8-15.96-5.51-42.56-5.33-85.81-5.21-128.34.35-7.17.94-14.44,2.06-21.02,5.07C8.84,15.01-.26,28.05,0,41.73c.12,5.93,1.86,11.71,2.36,17.62.77,9.18.57,21.04,12.42,21.62,7.62.37,15.4.28,23.15.25.07-.12.15-.24.25-.37,2.01-2.66,4.82-4.33,6.56-7.4,1.71-3.03,2.78-6.43,2.99-9.91.15-2.46-.09-4.92-.33-7.37-.39-3.97-.78-7.95-1.16-11.92-.25-2.58-.5-5.16-1.06-7.69-2.05-9.3-8.01-17.18-13.81-24.74,4.6,5.19,9.23,10.42,12.87,16.32,3.64,5.9,6.29,12.58,6.54,19.51.21,5.73-1.21,11.56.05,17.16,1.03,4.56,3.76,8.55,6.73,12.15.63.76,1.29,1.54,1.57,2.49.2.66.16,1.43-.16,2.03,22.46.46,44.93.67,67.4.29,14.17-.24,28.34-.72,42.5-1.53,4.22-.24,8.65-.57,12.2-2.87,2.26-1.46,3.97-3.59,5.65-5.69,2.65-3.32,5.32-6.66,7.21-10.47,3.15-6.35,3.93-13.65,3.53-20.72ZM71.68,31.96c-2.41.24-5.11.39-6.99-1.15,1.52-.56,3.11-.93,4.72-1.09l-.76.27c1.25.11,2.42.88,3.03,1.98ZM71.21,56.8c-.82-.13-1.68-.29-2.36-.77-.68-.48-1.15-1.37-.87-2.16l.59,1.27c2.46.72,4.97,1.23,7.51,1.52-1.54.57-3.24.39-4.86.13ZM85.38,24.11c1.44-.11,2.87-.22,4.31-.33l1.73-.09c.64,0,1.25.44,1.46,1.04-2.49.54-5.14.32-7.5-.62ZM96.76,63.16l1.85.25c1.88.56,3.76,1.12,5.64,1.68-2.44,1.54-6.09.6-7.48-1.93ZM104.44,52.01c-1.65-.21-3.27-.65-4.8-1.32,1.89-.16,3.8-.03,5.64.37l.31.54c-.14.42-.72.46-1.16.4ZM104.6,38.93c-1.82-.09-3.65-.18-5.47-.27-.03-.37-.17-.73-.38-1.04,1.08-.39,2.34-.22,3.27.45l.53-.75c1.92.11,3.82.39,5.69.85-.96.84-2.37.83-3.64.76ZM97.29,6.34c-2.52-.42-5.05-.95-7.59-.76-2.88.22-5.61,1.35-8.42,2.01-3.76.88-7.66.9-11.52.91-7.75.03-15.53.09-23.27-.46,10.96-.84,22.34.34,33.16-1.76,5.24-1.02,10.44-2.95,15.75-2.42,2.21.22,4.34.86,6.51,1.31,4.19.87,8.5,1.04,12.78,1.15,13.42.34,26.86.08,40.26-.76-10.84,3.07-22.3,2.81-33.57,2.52-8.06-.21-16.15-.41-24.1-1.74ZM128.05,61.05c2.17.06,7.84-.69,9.08,1.45-3.34.93-6.02-1.36-9.08-1.45ZM128.96,47.47c.18-.26.36-.53.55-.79l.98-.19c2.02.66,3.96,1.53,5.8,2.58-2.52,0-5.04-.54-7.33-1.6ZM182.11,60.3c-3.91,4.03-8.03,6.09-12.97,3.58,3.7-3.22,7.89-5.82,12.35-7.65-2.32-.27-4.65-.53-6.97-.8,1.29-2.85,2.59-5.69,3.9-8.53-1.29.13-1.81-1.81-1.47-3.14.34-1.33,3.52-.9,2.93-2.12-.27-.57-.79-.97-1.31-1.31-6.74-4.43-18.64-4.49-24.85-9.72,1.29-2.19,3.27-3.93,5.54-4.86-6.92-.21-13.84-.77-20.71-1.68-5.79-.77-11.73-1.86-16.65-5.19,13.77,2.03,27.54,4.04,41.31,6.03-1.06,2.54-3.86,4.13-6.44,3.64,8.14,3.88,16.29,7.76,24.43,11.63,1.08.51,2.37,1.65,1.77,2.73-.2.36-.57.57-.91.76-1.33.73-2.65,1.46-3.98,2.19,1.61,1.37,1.8,4.24.4,5.85.77,1.84,3.55,1.33,4.87,2.77,1.46,1.58.26,4.27-1.24,5.81Z"/></g></svg>