<?xml version="1.0" encoding="UTF-8"?><svg id="Layer_2" xmlns="http://www.w3.org/2000/svg" viewBox="0 0 165.4 88.34"><defs><style>.cls-1{fill:#e54259;}.cls-2{fill:#fff;}</style></defs><g id="Layer_1-2"><path class="cls-1" d="M115.84,64.33c-17.01.49-33.29,5.64-50.19,6.95-12.52.97-25.4-.15-37.48,3.12-6.23,1.69-13.25,4.29-19.06-1.09-4.02-3.72-6.17-10.25-7.54-16.43-2.22-10.06-2.68-22,2.67-27.93,3.82-4.23,9.48-4.16,14.3-6.18,5.21-2.18,9.45-6.85,14.29-10.05,5.8-3.82,12.5-5.5,19.33-4.83,4.3.42,8.63,1.75,12.94,2.53,13.46,2.44,26.59-.43,39.1-4.7,3.87-1.32,7.77-2.79,11.9-2.61,3.56.15,7.16,1.52,10.69,3.09,5.11,2.27,10.16,4.99,15.1,8.13,7.2,4.57,14.8,10.95,17.92,20.94,1.4,4.48,1.74,9.24,2.05,13.9.49,7.16-3.72,6.31-7.29,8.49-2.93,1.79-5.24,4.02-8.53,4.97-9.69,2.82-20.14,1.42-30.22,1.71Z"/><path class="cls-2" d="M159.23,30.66c-4.26-.02-8.9.1-12.06,3.12-.81.78-1.53,1.86-1.42,3.09.22,2.37,3,3.15,5.12,3.29-1.51.56-3.27.45-4.68-.5-1.41-.94-2.4-2.76-2.29-4.55.08-1.28.67-2.42,1.26-3.5-.94-.29-6.85-2.07-12.01-1.07-3.12.6-5.72,2.17-5.85,2.25-.8.49-1.2.74-1.44,1.06-2.2,2.98,4.18,12.72,5.16,14.2-2.91-.43-5.15-3.34-6.38-6.36-1.23-3.02-1.77-6.32-3.09-9.3-1.01-2.3-2.45-4.34-3.52-6.61-3.77-8-2.46-17.55.11-25.78-.33,5.55-.34,10.18-.27,13.57.07,3.5.23,6.02,1.04,9.09.25.93,1.94,7.14,4.71,8.03,1.31.42,2.57.16,2.57.16.73-.15,1.25-.41,1.38-.51,3.43-2.73,8.14-2.42,12.44-1.77,3.6.55,7.21,1.26,10.81,1.21,4.42-.06,7.86-1.91,10.1-3.27"/><path class="cls-2" d="M61.66,60.52c3.12-2.18,6.45-4.01,9.34-6.54s5.38-5.88,6.1-9.96c.53-3.01.08-6.17-.38-9.25-.35-2.33-.69-4.67-1.04-7-.16-1.06-.32-2.15-.76-3.13-.43-.97-1.11-1.78-1.7-2.65-1.03-1.52-1.8-3.26-2.25-5.08.46,3.89,4.92,5.98,5.87,9.79.34,1.38.17,2.82.18,4.24.02,3.34,1.05,6.61,2.07,9.81.91-1.6,1.87-3.27,3.36-4.19,1.1-.68,2.39-.88,3.65-1.08,2.4-.37,4.83-.75,7.27-.62.79.04,1.59.13,2.36-.03.72-.15,1.37-.53,1.96-.99,1.72-1.36,2.87-3.55,3.11-5.93.96,1.61.6,3.81-.46,5.22s-2.67,2.15-4.28,2.64c-1.27.38-2.57.64-3.9.75-1.92.17-3.88.05-5.77.42s-3.78,1.31-4.78,3.1c-1.72,3.07-.12,7.52,2.59,9.8s6.18,2.9,9.49,3.35c1.14.16,2.29.3,3.38.73,2.98,1.17,5.22,4.28,8.25,5.2-3.23.63-6.16-2.49-9.34-3.71-2.5-.96-5.18-.72-7.79-.95s-5.47-1.16-6.97-3.63c-.19-.31-.38-.66-.69-.77-.31-.1-.62.07-.88.24-1.87,1.21-3.54,2.75-5.28,4.18-5.53,4.55-11.74,8.01-17.72,11.81-1.15.73-5.62,5.29-6.42,4.87,3.05-4.24,7.3-7.78,11.41-10.65Z"/><path class="cls-2" d="M15.01,26.88c2.98,1.01,5.81,3,7.57,5.91.78,1.29,1.34,2.73,2.08,4.05,2.25,4.02,6.3,6.76,10.45,7.09-7.09-3.22-9.84-13.28-16.32-17.91,4.46-.56,8.77-2.21,12.53-4.81.81-.56,1.61-1.17,2.52-1.48,1.31-.44,2.75-.25,4.09-.56.82-.19,1.62-.56,2.47-.52.81.04,1.58.47,2.3.93,2.63,1.71,4.92,4.12,6.62,6.95.61-1.2.11-2.83-.77-3.89s-2.06-1.73-3.12-2.55-2.09-1.92-2.32-3.32c-.06-.36-.06-.74.11-1.04.27-.47.86-.54,1.38-.57,2.91-.13,5.83-.27,8.74-.4.11-.36-.04-.81-.34-1.02-.22-.15-.48-.17-.73-.19-5.31-.32-10.41,1.55-15.36,3.4-2.27.85-4.54,1.69-6.81,2.54-1.77.66-3.53,1.32-5.26,2.08-1.56.69-3.1,1.45-4.72,1.96-1.8.56-3.67.78-5.55.88-1.96.11-3.94.08-5.91-.07-.79-.06-3.73-.85-2.94.71.63,1.25,3.06.8,3.99.85,1.79.09,3.58.37,5.31.96Z"/><path class="cls-2" d="M15.57,48.45c.36-.72.9-1.37,1-2.2-.66.79-1.56,1.27-2.36,1.88s-1.56,1.44-1.69,2.53.65,2.39,1.63,2.32c.44-.03.94-.16,1.34-.21-.49-1.44-.57-3,.09-4.33Z"/><path class="cls-1" d="M139.16,67.91c-1.26.3-2.61.59-3.84.05.47-.78,1.39-1,2.23-1.17,2.62-.55,5.2-1.26,7.74-2.11,2.36-.79,4.75-2.25,7.15-2.76-.13,3.99-10.6,5.36-13.27,6Z"/><path class="cls-1" d="M72.21,71.93c-1.82.04-4.18.36-4.63,1.97,3.03-.77,6.12-1.27,9.23-1.5,3.53-.26,7.07-.16,10.6-.52,6.66-.68,13.12-2.97,19.8-3.47,2.23-.17,9.36.51,10.41-1.53-2.13-1.38-7.85-.34-10.53-.06-3.92.4-7.81,1.09-11.69,1.82-7.67,1.44-15.37,3.12-23.18,3.3Z"/><path class="cls-1" d="M20.1,78.48c-.06-.85.77-1.36,1.48-1.64,5.6-2.22,11.6-3.3,17.64-3.19-.21.67-.53,1.28-.94,1.81,5.91-1.31,11.9-2.62,17.98-2.13-9.36,1.64-18.71,3.29-28.07,4.93-.17-.98.9-1.52,1.75-1.73,1.2-.29,2.6-.43,3.67-1.04-1.2.24-13.52,2.48-13.52,2.99Z"/><path class="cls-1" d="M7.28,72.61c3.47,1.65,5.22,5.31,7.14,8.4,3.87,6.9,9.73,6.54,16.69,5.97,15.76-1.34,31.08-5.98,46.93-6.86,7.46-.47,14.92.08,22.35.01,11.12-.1,22.11-1.85,33.03-3.91,3.65-.69,7.29-1.44,10.93-2.2,6.89-1.61,15.29-2.49,19.4-8.95,1.88-3.1,1.96-7.57-1-10.05,3.17,2.4,3.29,7.02,1.46,10.31-3.9,6.85-12.62,8.17-19.59,9.92-3.62.85-7.25,1.69-10.89,2.47-10.93,2.37-22.09,4.07-33.31,4.32-7.44.16-14.87-.4-22.27-.02-15.77.79-31.14,5.3-46.95,6.15-7.27.46-13.45.46-17.22-6.89-1.83-3.19-3.32-6.82-6.69-8.68h0Z"/></g></svg>