<?xml version="1.0" encoding="UTF-8"?><svg id="Layer_2" xmlns="http://www.w3.org/2000/svg" viewBox="0 0 179.67 95.61"><defs><style>.cls-1{fill:#e54259;}</style></defs><g id="Layer_1-2"><path class="cls-1" d="M.1,70.79c.04,1.13.08,2.28.44,3.35.59,1.79,2.31,3.01,4.85,4.1,2.89,1.24,14.25,6.12,18.98,1.51,4.16-4.05-2.04-10.34-.5-24.27,1.32-11.92,6.87-16.62,3.93-20.72-2.72-3.79-10.65-4.18-16.07-1.49C3.44,37.4-.71,48.44.1,70.79Z"/><path class="cls-1" d="M28.53,50.06c-.18,6.42-.36,12.83-.54,19.25,1.59-4.35,2.28-8.97,2.97-13.55.84-5.61,2.14-11.37,2.5-17.02-4.81-.64-4.84,8.32-4.93,11.32Z"/><path class="cls-1" d="M32.11,60.2c0,6.39-3.61,12.07-4.08,18.39-.07,1.01-.38,3.66.68,4.31s1.89-.51,2.2-1.39c.48-1.39.23-3.41.42-4.89.22-1.76.52-3.5.77-5.25.27-1.89.51-3.79.55-5.69s-.53-3.67-.53-5.46Z"/><path class="cls-1" d="M175.41,62.45c-2.55-1.82-5.67-2.66-8.76-3.22-10.98-1.98-23.17-1.12-32.17-7.7-10.35-7.57-12.37-21.79-16.33-33.98-1.83-5.63-4.55-11.44-9.67-14.43-4.54-2.65-10.11-2.59-15.37-2.67-8.6-.14-17.21-.88-25.78-.14-8.57.74-17.26,3.09-23.98,8.45-4.23,3.37-16.61,20.31-5.29,21.61,5.27.61,11.96-2.21,17.32-2.71,6.37-.6,12.79-.6,19.15,0,5.68.53,11.79,1.79,15.55,6.07,2.12,2.41,3.24,5.53,4.18,8.6,2.61,8.56,4.12,17.45,4.51,26.4.1,2.39.13,4.8.29,7.2-3.77-5.72-7.22-10.54-7.75-17.77-.38-5.21.51-10.84-2.17-15.36-3.53-5.94-11.69-7.55-18.9-8.57-5.49-.78-11.06-1.56-16.61-.97-5.56.59-11.2,2.73-14.8,6.83-4.87,5.55-5.06,13.31-4.94,20.39.08,5.12.2,10.26-.21,15.38-.23,2.87-.61,5.85.44,8.52,2.27,5.77,9.91,7.5,16.47,8.06,8.19.7,16.46.82,24.71.36,3.41-.19,10.4-1.61,16.31-3.05,5.25-1.28,10.69-.8,15.85.81.1.03.18.05.26.07,7.52,1.5,15.1,2.75,22.7,3.76,7.58,1,15.28,1.75,22.86.74,3.3-.44,6.63-1.25,9.4-3.07,2.22-1.46,3.99-3.51,5.72-5.53,2.31-2.69,4.61-5.38,6.92-8.07,2.03-2.36,4.15-4.96,4.36-8.07.2-3.13-1.7-6.11-4.25-7.94ZM49.51,48.89c3.11-1.5,6.61-2.19,10.06-1.96,3.32.23,6.52,1.28,9.6,2.54-3.6-.11-7.21-.22-10.81-.02-2.26.12-4.55.37-6.67,1.18-2.81,1.07-5.17,3.07-7.44,5.04.87-3.23,2.25-5.34,5.26-6.79ZM72.49,75.37c.55,1.4-.44,3.05-1.83,3.64-1.38.59-2.98.36-4.41-.13-1.42-.49-2.76-1.21-4.21-1.61-1.71-.46-3.52-.44-5.29-.42-1.52.02-3.05.06-4.57.05,3.89-1.11,8.01-1.68,11.97-2.57.77-.16,1.58-.35,2.16-.87.5-.45.77-1.1,1.03-1.72,1.49-3.46,3.47-6.71,5.84-9.63-.93,2.83-1.73,5.7-2.38,8.6-.14.63-.28,1.29-.1,1.92.29,1.06,1.38,1.72,1.79,2.74ZM98.08,26.36c.25-2.89-.78-5.87-2.77-7.99-.58-.61-1.24-1.17-2.02-1.48-1.43-.57-3.04-.29-4.58-.24-1.54.04-3.31-.31-4.08-1.64,2.56,1.2,5.65-1.14,8.34-.27l-.83-.04c.78.08,1.56.27,2.23.66.8.46,1.42,1.17,1.95,1.92,1.85,2.61,2.75,6.05,1.74,9.08Z"/></g></svg>