<?xml version="1.0" encoding="UTF-8"?><svg id="Layer_2" xmlns="http://www.w3.org/2000/svg" viewBox="0 0 181.47 72.15"><defs><style>.cls-1{fill:#e64259;}</style></defs><g id="Layer_1-2"><path class="cls-1" d="M40.98.25c-6.56.29-13.19.85-19.4,2.97-8.47,2.88-10.45,10.7-14.48,17.38-4.4,7.3-10.24,13.76-5.08,23.35,4.77,8.87,13.53,15.12,23,18.55,7.17,2.6,14.78,3.73,22.34,4.7,22.79,2.94,45.76,4.58,68.74,4.92,4.18.06,8.41.08,12.49-.85,5.69-1.29,10.82-4.33,15.73-7.49,13.16-8.45,25.61-18.01,37.16-28.56C139.32,10.38,89.87-1.93,40.98.25ZM111.91,29.64c1.16.02,2.43.87,3.4.86-1.9.01-6.03.97-7.42-.26,1.23-.37,2.71-.61,4.02-.6ZM95.22,17.34c.82-.04,1.77-.03,2.29.61-.27.29-.72.32-1.13.33-2.18.04-8.53,1.21-9.91-.44,2.87-.42,5.85-.28,8.75-.5ZM74.73,39.39l.35-.67c1.51.17,3.08-.14,4.41-.88-.69.58-1.38,1.15-2.07,1.73-.45.38-.94.77-1.53.82-.59.05-1.25-.42-1.16-1ZM39.81,13.9l-4.17-.39c11.57,1.25,22.2,5.42,28.84,11.31-2.39-.81-4.22-2.1-6.28-3.19s-4.6-2.05-7.33-1.93c-2.87.12-5.21,1.38-7.31,2.57,1.91-1.16,3.82-2.32,5.73-3.47-2.3-.97-4.88-1.67-7.43-2.37-1.16-.32-2.32-.63-3.47-.95-3.9-1.07-7.82-2.14-11.94-2.86,4.51.1,9.01.54,13.35,1.29ZM27.22,41.06c-.61-.32-1.28-.67-1.89-.8-.4-.09-.71-.07-.97-.04-.83.1-1.46.35-1.83.73.12-.45.23-.9.35-1.34.05-.18.09-.36-.06-.6-.55-.91-3.13-1.9-4.39-2.91-.62.01-1.07.15-1.29.41-.02-.83-1.85-2.13-3.51-3.24-.84-.56-1.69-1.13-2.59-1.69-.67-.34-1.3-.71-1.85-1.08.65.34,1.26.71,1.85,1.08.71.36,1.46.68,2.18.88,1.18.34,2.1.33,2.95.31-.7.05-.6.6-.02,1.18s1.55,1.17,2.52,1.72c.7.39,1.51.8,2.23.97.52.12.9.09,1.26.06,1.19-.11,2.38-.21,3.57-.32-.75.38-1.5.77-2.25,1.15-.14.07-.29.15-.26.3.06.28.67.68,1.23,1.03,2.64,1.64,5.28,3.28,7.93,4.92-1.72-.9-3.44-1.81-5.16-2.71ZM44.17,58.76c.39-1.79,1.13-3.49,2.12-5.03,0-.05,0-.1,0-.15l.49-.61c-.18.24-.33.5-.5.76-.07,1.86-.84,3.69-2.12,5.03ZM61.92,61.86c.17-1.94.62-3.85,1.36-5.65l.09.02c.35,1.97-.2,4.08-1.45,5.64ZM81.32,63.01c-.69-1.49.7-3.46-.25-4.79l.7.24c-.37,1.49-.52,3.02-.45,4.55ZM77.76,49.16c-5.07-1.87-10.14-3.73-15.21-5.6-1.8-.66-3.62-1.33-5.19-2.43-.99-.69-1.85-1.53-2.69-2.4-1.91-.99-3.81-1.99-5.7-3.02-2.71-1.49-5.4-3.03-8.18-4.38-1.14-.27-2.27-.54-3.37-.88-2.68-.83-5.24-2.05-7.82-3.17-1.37-.36-2.74-.72-4.11-1.06-2.1-.52-4.28-1.21-6.48-1.81-2.36-.24-4.74-.44-6.95-1.25,2.29.1,4.63.62,6.95,1.25,1.29.13,2.58.27,3.84.54,2.34.49,4.55,1.37,6.75,2.32,2.6.69,5.18,1.46,7.68,2.47,1.19.48,2.36,1.02,3.51,1.58,3.54.83,7.13,1.54,10.01,3.68,1.44,1.06,2.62,2.43,3.86,3.72,7.51,3.87,15.22,7.35,23.09,10.42,3.02,1.11,6.05,2.23,9.07,3.34-3.05-1.05-6.07-2.17-9.07-3.34ZM87.06,48.87c.89-.87,1.77-1.73,2.66-2.6l.45-.17c.56-.15,1.13-.3,1.69-.45-1.31,1.49-2.82,3.08-4.8,3.21ZM106.72,54.19c-1.37-1.4-2.96-2.72-4.21-4.18,4.78-.11,6.99,8.02,11.05,9.23-2.75-.82-4.84-2.99-6.84-5.04ZM117.04,58.16c-3.5-3.5-7.43-6.46-11.71-9.26l-22.91-11.06c6.97,1.25,13.2,5.03,19.23,8.73,1.25.77,2.48,1.55,3.68,2.33.18.09.36.18.55.26,2.18,1.05,4.38,2.12,6.26,3.65,1.59,1.3,2.91,2.9,4.21,4.49.23.28.46.57.69.85,2.33,2.33,4.47,4.89,6.41,7.82-2.16-2.59-4.28-5.21-6.41-7.82Z"/></g></svg>