<?xml version="1.0" encoding="UTF-8"?><svg id="Layer_2" xmlns="http://www.w3.org/2000/svg" viewBox="0 0 162.67 80.72"><defs><style>.cls-1{fill:#e54259;}</style></defs><g id="Layer_1-2"><path class="cls-1" d="M161.49,23.02c-1.16-4.9-2.12-8.91-4.89-12.69-5.7-7.78-13.85-7.41-26.07-7.84-19.63-.7-6.04-1.92-30.14-2.39-28.21-.54-42,1.23-65.8,1.56-5.28.07-10.55.41-15.83.61-4.13.16-10.24-1.15-14.06,1.26C-1.5,7.44.3,25.86.09,33.2c-.37,12.88,2.82,22.24,4.09,26.47,1.9,6.37,4.12,11.34,5.03,13.08,8.81,16.88,35.79,1.01,78.71,5.41,19.58,2.01,39.32-1.92,58.91-.1,1.69.16,7.08.72,10.08-3.66,1.9-2.77,2.04-6.33,2.14-8.42,1.19-24.79,5.74-29.08,2.44-42.96ZM18.76,64.27c-1.16-9.95-1.9-19.96-2.21-29.99-2.12,10.38-3.25,21.04-3.38,31.71-1-5.5-.71-11.19-.42-16.79.59-11.35-.81-25.71,3.5-36.12-.25,6.48.17,12.86,1.77,19.11,1.06-8.56,2.17-17.34,5.8-24.89-1.45,19.02-3.14,38.02-5.07,56.98ZM54.26,52.5l-3.91-18.99c-3.89,7.99-1.23,18.21-3.51,26.99-.91-10.18-2.34-20.31-4.28-30.29-1.63,9.14-3.1,18.32-4.42,27.53-.17-5.54-.65-11.07-1.44-16.54-.98,7.25-1.96,14.5-2.95,21.75,1.43-10.58-4.84-27.45.37-36.99,1.29,4,1.54,8.69,2.55,12.87.37-6.04,2.18-11.95,5.19-16.9l3.44,10.26c.41-4.02,1.45-7.95,3.05-11.55.79,4.59,2.6,8.94,5.22,12.5,2.2-7.4,3.77-15.05,4.68-22.8l-4,42.17ZM73.54,55.11c-1.4-4.42-2.8-8.85-4.19-13.27-.62,2.53-1.11,5.19-1.97,7.61-3.55-2.63,4.34-19.62,3.95-24.22.44,5.19.89,10.37,1.33,15.56.9-4.24,1.8-8.47,2.71-12.71.72,9.04.1,18.23-1.82,27.03ZM86.93,59.16c-.88-6.63-3.55-12.92-4.5-19.29-1.06-7.14,2.97-14.28,2.58-21.1.34,5.92.68,11.86,1.49,17.72-.06-5.87.79-11.76,2.5-17.28-.02,13.36-.05,26.8-2.07,39.95ZM104.35,36.41c-1.1,6.58-1.97,13.67-2.59,21.04.23-11.27.16-23.38.77-34.42.67.29,2.28,10.62,1.82,13.38ZM128.97,66.68c-1.08-6.93-1.73-13.98-1.95-21.05.02,4.37-.43,8.74-1.34,12.94-1.68-4.54-2.88-9.4-3.54-14.38.08,7.81.16,15.76-1.49,23.25.54-2.44-1.59-8.68-1.95-11.33-.43-3.12-.64-5.57-.09-8.64,1.4-7.76,3.9-14.9,4.85-22.91,1.44,5.32,2.51,10.82,3.19,16.4.17-5.45.9-10.88,2.14-16.08,1.18,13.87,1.24,27.9.19,41.79ZM149.15,68.13c-.99-4.76-1.5-9.68-1.53-14.61l-3.57,15.88c-1.57-5.42-2.31-11.22-2.18-17-.68,1.88-1.32,3.8-2.08,5.62-1.48-5.54-.78-11.29-.4-17.02.42-6.47,2.83-15.95,1.92-22.23.82,5.64.9,11.44.25,17.11-.51,4.48-1.49,8.99-.98,13.48.74-6.75,1.71-13.46,2.91-20.11.31,9.89.62,19.79.92,29.68.83-9.81,1.67-19.63,3.11-29.32,1.75,12.69,2.3,25.66,1.63,38.52Z"/></g></svg>