<?xml version="1.0" encoding="UTF-8"?><svg id="Layer_2" xmlns="http://www.w3.org/2000/svg" viewBox="0 0 174.64 119.08"><defs><style>.cls-1{fill:#e54259;}</style></defs><g id="Layer_1-2"><path class="cls-1" d="M174.08,37.75c.87-2.78.57-5.79.13-8.67-.9-5.95-2.3-11.82-4.18-17.54-.64-1.94-1.38-3.93-2.81-5.39-1.76-1.79-4.32-2.52-6.77-3.08-37.07-8.55-75.77,3.77-113.72,1.18-9.67-.66-19.3-2.29-29-2.09-3.8.08-7.7.47-11.11,2.17C3.21,6.03.36,9.26.03,13.05c-.35,4.06,2.12,7.77,4.54,11.05.24.32.48.63.71.95.03-.35.08-.71.16-1.09.82-3.61,4.66-5.08,7.92-2.81,2.7,1.88,2.7,5.79,3.42,8.62,1.99,7.8,6.6,14.95,13.26,19.79,1.02.74,2.13,1.45,3.37,1.6,1.14.14,2.25-.21,3.33-.55,6.92-2.17,13.9-4.23,21.1-5.38,13.11-2.09,26.82-1.09,39.67,2.91,1.22.38,2.63.99,2.92,2.21.11.47.03.97-.17,1.4-1.14,2.52-4.84,2.17-7.63,1.57-9.91-2.14-20.16-2.46-30.06-.92-5.07.79-10.66,2.53-12.72,7.11-1.06,2.36-.98,5.09-.58,7.68.54,3.47.82,8.47,4.14,11.78,4.84,4.83,11.5,1.88,13.84,5.78,2.16,3.59-1.61,9.18-2.21,10.06-3.54,5.25-10.1,8.34-16,9.16.9,1.27,1.91,2.32,3.04,2.94,4.15,2.28,11.91-.1,16.1-1.38,5.4-1.65,10.51-4.27,14.97-7.75,4.56-3.56,8.42-7.95,12.93-11.57,6.26-5.02,13.61-8.43,20.8-11.98,11.69-5.78,23.14-12.03,34.58-18.28,5.55-3.03,11.13-6.08,16.09-10.01,2.78-2.2,5.45-4.82,6.51-8.2ZM38.08,44.07c.21-3.62-.93-6.12-2.08-7.82-1.15-1.7-2.47-3.31-2.84-6.53-.22-1.94-.06-4.19.1-6.37.23-3.08.31-5.71-.26-8.16-.19-.81-1.16-3.07-.7-4.27.67-1.76,2.34.91,2.65,1.84.56,1.71.7,4.31.32,6.77-.33,2.14-1.01,4.28-.95,6.35.03,1.34.37,2.35.7,3.29.42,1.19.84,2.39,1.28,3.54.01-.03.02-.07.03-.1.24-.64.55-1.03.84-1.44.58-.79,1.13-1.72,1.69-2.64.23-.38.47-.79.62-1.37.23-.9.17-1.91.26-2.89.1-1.12.42-2.25.82-2.94.22-.38,1.16-1.39,1.26-.54.06.57-.56,1.47-.72,1.8-.48,1.02-.71,2.18-.93,3.56-.16.97-.32,1.98-.61,2.81-.48,1.38-1.17,1.96-1.81,2.58-.42.41-.87.98-1.21,1.78.32.84.66,1.65,1.01,2.42.47,1.03.99,2.04,1.2,3.55.21,1.51,0,3.69-.67,4.77ZM55.74,38.06c-.86-1.13-1.61-2.67-1.3-4.15.07-1.86,1.27-3.72,2.69-5.18,1.96-2.03,5.09-3.21,5.83-5.93.67-2.44-.97-5.19.05-7.51.88-2,3.39-2.85,4.4-4.79-1.19,2.74-2.41,5.55-2.62,8.53-.11,1.53.05,3.11-.42,4.57-.77,2.41-3.04,3.98-5.19,5.32-1.05.66-2.12,1.32-2.93,2.26-.61.72-1.04,1.67-1.24,2.67-.05,1.41.22,2.85.74,4.22ZM84.02,36.57c.52-1.75.23-3.77-.14-5.53-.42-1.96-1.11-4.16-.02-5.85.86-1.33,2.7-2.05,2.96-3.61.17-1.05-.48-2.06-1.15-2.89-1.19-1.46-2.54-2.78-4.03-3.93-.69-.53-1.43-1.06-1.83-1.84-.39-.78-.28-1.9.49-2.31,1.48,3.49,5.68,4.92,8.07,7.87.63.77,1.15,1.77.9,2.74-.13.5-.45.92-.81,1.28-1.38,1.37-3.5,2.03-4.41,3.76-.71,1.36-.46,3-.09,4.48.47,1.82,1.27,4.1.07,5.81ZM115.24,16.25c-2.55,2.61-5.78,4.26-7.54,7.64-1.58,3.04-1.28,6.31-3.12,9.22-1.59,2.52-4.14,3.71-5.82,6.15,2.17-3.44,4.38-6.96,5.79-10.63.72-1.89,1.23-3.81,2.24-5.64,1.67-3.01,4.3-5.08,6.74-6.86,1.19-.87,2.4-1.75,3.49-2.95.79-.87,1.52-1.99,2.1-3.16.67-1.79,1.06-3.62,1.17-5.33.3,1.39-.23,3.43-1.17,5.33-.83,2.22-2.09,4.39-3.88,6.22ZM170.52,39.14c-.22.38-.47.75-.85.98-.81.48-1.95.13-2.64-.55-.69-.68-1.03-1.6-1.35-2.49-1.36,2.72-3.02,5.29-4.94,7.67,1.59-.48,3.14-1.05,4.65-1.71-1.13,2.6-12.28,9.83-12.53,6.51-.15-1.96,4.25-5.16,5.33-6.47,2.31-2.8,4.28-5.85,6.23-8.89,1.34-2.09,2.7-4.22,3.38-6.61s.61-5.11-.79-7.28c2.06-.16,3.8,1.88,4.04,3.86.24,1.98-.58,3.88-1.29,5.72s-1.33,3.86-.71,5.78c1.47-.73,2.51-2.16,2.72-3.74.45,2.48,0,5.07-1.24,7.22Z"/><path class="cls-1" d="M4.82,25.69c-5.31,7.81.88,16.61,5.94,22.79,3.95,5.08,7.07,10.9,9.17,16.99,1.13,2.84,3.74,8.69,7.53,7.1,1.81-.91,2.55-3.21,4.45-4.39,4.49-2.8,10.18,1.73,10.56,6.46,1.13,8.7-7.59,14.9-6.95,23.41.74,6.54,6.43,11.01,11.51,14.56,3.38,2.27,6.85,4.88,11.07,4.66,6.21-.49,12.23-3.16,17.99-5.46,15.58-6.85,29.18-17.97,39.26-31.67-9.47,14.3-23.06,25.85-38.63,33.07-5.96,2.57-12,5.29-18.57,5.83-4.57.29-8.6-2.48-12.17-4.9-5.56-3.81-11.67-8.71-12.44-15.92-.92-8.62,7.88-14.9,7.13-23.37-.2-3.53-4.53-7.23-7.81-5.24-1.73,1.13-2.52,3.49-4.68,4.45-2.36,1.23-5.12-.37-6.48-2.27-2.79-3.49-3.47-7.89-5.33-11.81-1.71-3.87-3.87-7.52-6.38-10.95-4.85-6.35-10.95-15.73-5.16-23.37h0Z"/></g></svg>