<?xml version="1.0" encoding="UTF-8"?><svg id="Layer_2" xmlns="http://www.w3.org/2000/svg" viewBox="0 0 167.31 113.12"><defs><style>.cls-1{fill:#e54259;}</style></defs><g id="Layer_1-2"><path class="cls-1" d="M161.83,88c-9.74-23.49-13.09-49.04-18.98-73.78-.75-3.16-1.61-6.43-3.67-8.94-2.76-3.36-7.25-4.81-11.58-5.17-8.77-.73-17.39,2.33-25.44,5.9-9.25,4.11-18.17,8.96-26.75,14.34-13.56,8.51-18.77,13.03-28.89,20.1C13.55,63.5.91,64.56.05,74.62c-1,11.55,14.68,21.48,18.04,23.61,10.98,6.95,19.3,4.31,49.12,8.18,16.46,2.13,33.01,3.67,49.58,4.61,4.69.27,48.94,3.84,49.79,1.02,2.4-7.99-1.55-16.33-4.74-24.04ZM140.13,37.33c-2.45-.4-4.67-1.63-7.04-2.37-1.5-.47-3.05-.74-4.59-1-2.18-.38-4.37-.76-6.55-1.13,4.4-.67,9.66-.82,13.82.95,1.76.75,3.39,1.91,4.37,3.55ZM91.02,45.8c8.9-1.31,18.04,1.13,26.04,5.25,6.19,3.18,13.08,7.42,17.9,12.43-5.45,1.81-18.66-6.49-24.78-8.16-8.8-2.4-18.62-4.39-27.79-4.03,8.98-.35,17.99-.06,26.93.87-6.1-2.12-12.2-4.24-18.3-6.35ZM115.07,39.79c-7.47-1.05-15.04-1.45-22.58-1.2-4.34.15-8.67.51-12.97,1.09.67-.5,1.51-.7,2.33-.88,11.38-2.48,23.2-1.67,34.82-.85-7.38-2.16-15.15-2.95-22.81-2.34,14.78-2.51,30.55,1.58,42.24,10.96-7.02-2.76-13.54-5.74-21.03-6.79ZM112.42,16.68c1.51.18,3,.53,4.43,1.05,1.09.4,2.55,1.64,3.64,1.78-2.94-.4-5.88-.72-8.83-.97-1.81-.15-6.73.38-7.87-.92,2.51-1.22,5.9-1.28,8.64-.95ZM91.81,27.79c5.41-2.03,11.37-2.57,17.06-1.54-1.95-.9-4.48-1.85-7.52-2.51-3.04-.65-5.77-.82-8-.79-.48.01-.97.02-1.44.04.45-.02.94-.04,1.44-.04,5.45-.14,11.94.09,19.18,1.22,7.16,1.11,13.35,2.82,18.41,4.57-5.58-.71-11.28-1.42-16.79-.29,1.07-.22,2.63.16,3.67.44-2.24.73-5.98-.34-8.41-.38-3.34-.06-6.68.08-10.02.21-3.77.15-7.66.34-11.03,2.03.36-1.54,1.97-2.4,3.45-2.95ZM75.16,31.61c1.83-.41,3.69-.81,5.56-.74,1.87.08,3.8.7,5.08,2.07-.54-.58-4.69-.19-5.55-.2-1.66-.02-3.32-.03-4.98.02-2.48.08-4.94.36-7.42.48,2.42-.58,4.87-1.09,7.3-1.63ZM60.58,46.73c3.94-.85,9.62-2.17,13.5-.66-1.62,1.86-6.91.86-9.14.99-3.8.22-8.03.46-11.7,1.55,2.42-.72,4.87-1.35,7.34-1.88ZM100.35,72.7c-20.15-3.85-36.76-3.4-47.1-3.06-15.2.49-28.07,2.33-37.81,4.18,7.69-3.17,17.14-6.19,28.15-7.98,27.81-4.52,50.96,1.25,64.22,5.8-21.54-8.23-39.56-10.81-52.86-11.47-10.76-.53-19.44.15-19.45-.13-.02-.41,19.7-4.11,42.88-.69,19.4,2.86,33.68,9.6,46.12,15.47,14.68,6.93,26.17,14.28,34.17,19.94-23.38-13.66-44.41-19.4-58.32-22.06Z"/></g></svg>